<svg xmlns="http://www.w3.org/2000/svg" xmlns:svg="http://www.w3.org/2000/svg" xmlns:xlink="http://www.w3.org/1999/xlink" id="svg2" width="900" height="320" version="1.1"><defs id="defs4"><linearGradient id="linearGradient5513"><stop id="stop5515" offset="0" style="stop-color:#000;stop-opacity:1"/><stop id="stop5517" offset="1" style="stop-color:#000;stop-opacity:0"/></linearGradient><marker style="overflow:visible" id="Arrow1Mend" orient="auto" refX="0" refY="0"><path style="fill-rule:evenodd;stroke:#000;stroke-width:1pt" id="path3886" d="M 0,0 5,-5 -12.5,0 5,5 0,0 z" transform="matrix(-0.4,0,0,-0.4,-4,0)"/></marker><marker style="overflow:visible" id="Arrow2Lend" orient="auto" refX="0" refY="0"><path style="fill-rule:evenodd;stroke-width:.625;stroke-linejoin:round" id="path3898" d="M 8.7185878,4.0337352 -2.2072895,0.01601326 8.7185884,-4.0017078 c -1.7454984,2.3720609 -1.7354408,5.6174519 -6e-7,8.035443 z" transform="matrix(-1.1,0,0,-1.1,-1.1,0)"/></marker><linearGradient id="linearGradient5519" x1="-104.355" x2="-242.32" y1="220.968" y2="325.207" gradientUnits="userSpaceOnUse" xlink:href="#linearGradient5513"/></defs><metadata id="metadata7"/><g id="layer1" transform="translate(128.48318,-155.03173)"><rect id="rect2985" width="232.26" height="20" x="-65.782" y="195.568" rx="2.443" style="fill:#f95;fill-rule:evenodd;stroke:none"/><path id="path4847" d="m 7.2185977,-24.100638 -2.9377464,5.251027 1.6801595,5.777604 -5.90183729,-1.171306 -4.97562991,3.383305 -0.7097897,-5.974935 -4.7552679,-3.686607 5.4631632,-2.521406 2.0367127,-5.661752 4.0862102,4.416619 z" transform="translate(-113.77299,191.54057)" style="fill:#ff0;fill-opacity:1;stroke:#fa9c13;stroke-opacity:1"/><rect id="rect5543" width="24.016" height="18.906" x="-109.976" y="455.215" rx="4.378" style="fill:none;stroke:none"><desc id="desc6103">to push connector lines around</desc></rect><rect id="rect6198" width="141.39" height="20" x="198.141" y="166.229" rx="1.614" style="fill:#76c5d9;fill-rule:evenodd;stroke:none;fill-opacity:1"/><rect style="fill:#5fd35f;fill-rule:evenodd;stroke:none" id="rect3419" width="111.198" height="20" x="375.479" y="191.568" rx="2.443"/><rect style="fill:#7b57ff;fill-rule:evenodd;stroke:none;fill-opacity:1" id="rect3528" width="66.717" height="20" x="673.995" y="280.676" rx="2.443"/><rect id="rect3530" width="61.974" height="20" x="643.307" y="190.411" rx="2.443" style="fill:#7b57ff;fill-rule:evenodd;stroke:none;fill-opacity:1"/><rect style="fill:#7b57ff;fill-rule:evenodd;stroke:none;fill-opacity:1" id="rect3532" width="55.597" height="20" x="557.486" y="393.522" rx="2.443"/><rect style="fill:#76c5d9;fill-rule:evenodd;stroke:none;fill-opacity:1" id="rect9751" width="83.028" height="20" x="201.827" y="196.025" rx="1.614"/><rect id="rect9753" width="100.229" height="20" x="230.086" y="225.82" rx="1.614" style="fill:#76c5d9;fill-rule:evenodd;stroke:none;fill-opacity:1"/><rect style="fill:#f95;fill-rule:evenodd;stroke:none" id="rect9755" width="127.825" height="20" x="-74.382" y="291.875" rx="2.443"/><rect id="rect9757" width="146.953" height="20" x="-91.921" y="394.913" rx="2.443" style="fill:#f95;fill-rule:evenodd;stroke:none"/><rect style="fill:#76c5d9;fill-rule:evenodd;stroke:none;fill-opacity:1" id="rect9759" width="175.178" height="20" x="84.258" y="263.909" rx="1.614"/><rect id="rect9761" width="83.642" height="20" x="162.279" y="292.168" rx="1.614" style="fill:#76c5d9;fill-rule:evenodd;stroke:none;fill-opacity:1"/><rect style="fill:#76c5d9;fill-rule:evenodd;stroke:none;fill-opacity:1" id="rect9763" width="65.827" height="20" x="88.559" y="320.427" rx="1.614"/><rect id="rect9765" width="175.178" height="20" x="95.21" y="365.588" rx="1.614" style="fill:#76c5d9;fill-rule:evenodd;stroke:none;fill-opacity:1"/><rect style="fill:#76c5d9;fill-rule:evenodd;stroke:none;fill-opacity:1" id="rect9767" width="83.642" height="20" x="96.439" y="395.69" rx="1.614"/><rect id="rect9769" width="65.827" height="20" x="194.732" y="425.793" rx="1.614" style="fill:#76c5d9;fill-rule:evenodd;stroke:none;fill-opacity:1"/><rect id="rect9771" width="111.198" height="20" x="296.613" y="281.875" rx="2.443" style="fill:#5fd35f;fill-rule:evenodd;stroke:none"/><rect style="fill:#5fd35f;fill-rule:evenodd;stroke:none" id="rect9773" width="82.285" height="20" x="308.179" y="398.913" rx="2.443"/><rect id="rect9779" width="29.048" height="20" x="458.3" y="270.484" rx="2.443" style="fill:#e580ff;fill-rule:evenodd;stroke:none"/><rect style="fill:#e580ff;fill-rule:evenodd;stroke:none" id="rect9781" width="29.048" height="20" x="458.3" y="295.69" rx="2.443"/><rect style="fill:#e580ff;fill-rule:evenodd;stroke:none" id="rect9787" width="29.048" height="20" x="615.915" y="270.484" rx="2.443"/><rect id="rect9789" width="29.048" height="20" x="615.915" y="295.69" rx="2.443" style="fill:#e580ff;fill-rule:evenodd;stroke:none"/><rect style="fill:#e580ff;fill-rule:evenodd;stroke:none" id="rect9791" width="29.048" height="20" x="541.779" y="177.815" rx="2.443"/><rect id="rect9793" width="29.048" height="20" x="541.779" y="203.021" rx="2.443" style="fill:#e580ff;fill-rule:evenodd;stroke:none"/><rect id="rect9795" width="29.048" height="20" x="578.106" y="177.815" rx="2.443" style="fill:#e580ff;fill-rule:evenodd;stroke:none"/><rect style="fill:#e580ff;fill-rule:evenodd;stroke:none" id="rect9797" width="29.048" height="20" x="578.106" y="203.021" rx="2.443"/><rect id="rect9799" width="29.048" height="20" x="423.163" y="381.98" rx="2.443" style="fill:#e580ff;fill-rule:evenodd;stroke:none"/><rect style="fill:#e580ff;fill-rule:evenodd;stroke:none" id="rect9801" width="29.048" height="20" x="423.163" y="407.185" rx="2.443"/><rect style="fill:#e580ff;fill-rule:evenodd;stroke:none" id="rect9803" width="29.048" height="20" x="493.592" y="381.98" rx="2.443"/><rect id="rect9805" width="29.048" height="20" x="493.592" y="407.185" rx="2.443" style="fill:#e580ff;fill-rule:evenodd;stroke:none"/></g></svg>