<svg xmlns="http://www.w3.org/2000/svg" xmlns:svg="http://www.w3.org/2000/svg" xmlns:xlink="http://www.w3.org/1999/xlink" id="svg2" width="900" height="320" version="1.1"><defs id="defs4"><linearGradient id="linearGradient5513"><stop id="stop5515" offset="0" style="stop-color:#000;stop-opacity:1"/><stop id="stop5517" offset="1" style="stop-color:#000;stop-opacity:0"/></linearGradient><marker style="overflow:visible" id="Arrow1Mend" orient="auto" refX="0" refY="0"><path style="fill-rule:evenodd;stroke:#000;stroke-width:1pt" id="path3886" d="M 0,0 5,-5 -12.5,0 5,5 0,0 z" transform="matrix(-0.4,0,0,-0.4,-4,0)"/></marker><marker style="overflow:visible" id="Arrow2Lend" orient="auto" refX="0" refY="0"><path style="fill-rule:evenodd;stroke-width:.625;stroke-linejoin:round" id="path3898" d="M 8.7185878,4.0337352 -2.2072895,0.01601326 8.7185884,-4.0017078 c -1.7454984,2.3720609 -1.7354408,5.6174519 -6e-7,8.035443 z" transform="matrix(-1.1,0,0,-1.1,-1.1,0)"/></marker><linearGradient id="linearGradient5519" x1="-104.355" x2="-242.32" y1="220.968" y2="325.207" gradientUnits="userSpaceOnUse" xlink:href="#linearGradient5513"/></defs><metadata id="metadata7"/><g id="layer1" transform="translate(128.48318,-155.03173)"><path id="path4847" d="m 7.2185977,-24.100638 -2.9377464,5.251027 1.6801595,5.777604 -5.90183729,-1.171306 -4.97562991,3.383305 -0.7097897,-5.974935 -4.7552679,-3.686607 5.4631632,-2.521406 2.0367127,-5.661752 4.0862102,4.416619 z" transform="translate(-113.77299,191.54057)" style="fill:#ff0;fill-opacity:1;stroke:#fa9c13;stroke-opacity:1"/><rect id="rect5543" width="24.016" height="18.906" x="-109.976" y="455.215" rx="4.378" style="fill:none;stroke:none"><desc id="desc6103">to push connector lines around</desc></rect><rect id="rect6198" width="141.39" height="20" x="198.141" y="166.229" rx="1.614" style="fill:#76c5d9;fill-rule:evenodd;stroke:none;fill-opacity:1"/><rect style="fill:#5fd35f;fill-rule:evenodd;stroke:none" id="rect3419" width="111.198" height="20" x="375.479" y="191.568" rx="2.443"/><rect style="fill:#7b57ff;fill-rule:evenodd;stroke:none;fill-opacity:1" id="rect3528" width="66.717" height="20" x="673.995" y="280.676" rx="2.443"/><rect id="rect3530" width="61.974" height="20" x="643.307" y="190.411" rx="2.443" style="fill:#7b57ff;fill-rule:evenodd;stroke:none;fill-opacity:1"/><rect style="fill:#7b57ff;fill-rule:evenodd;stroke:none;fill-opacity:1" id="rect3532" width="55.597" height="20" x="557.486" y="393.522" rx="2.443"/><rect style="fill:#76c5d9;fill-rule:evenodd;stroke:none;fill-opacity:1" id="rect9751" width="83.028" height="20" x="201.827" y="196.025" rx="1.614"/><rect style="fill:#f95;fill-rule:evenodd;stroke:none" id="rect9755" width="127.825" height="20" x="-74.382" y="291.875" rx="2.443"/><rect id="rect9757" width="146.953" height="20" x="-91.921" y="394.913" rx="2.443" style="fill:#f95;fill-rule:evenodd;stroke:none"/><rect style="fill:#76c5d9;fill-rule:evenodd;stroke:none;fill-opacity:1" id="rect9759" width="175.178" height="20" x="84.258" y="263.909" rx="1.614"/><rect id="rect9761" width="83.642" height="20" x="162.279" y="292.168" rx="1.614" style="fill:#76c5d9;fill-rule:evenodd;stroke:none;fill-opacity:1"/><rect style="fill:#76c5d9;fill-rule:evenodd;stroke:none;fill-opacity:1" id="rect9763" width="65.827" height="20" x="88.559" y="320.427" rx="1.614"/><rect id="rect9765" width="175.178" height="20" x="95.21" y="365.588" rx="1.614" style="fill:#76c5d9;fill-rule:evenodd;stroke:none;fill-opacity:1"/><rect style="fill:#5fd35f;fill-rule:evenodd;stroke:none" id="rect9773" width="82.285" height="20" x="308.179" y="398.913" rx="2.443"/><rect style="fill:#e580ff;fill-rule:evenodd;stroke:none" id="rect9791" width="29.048" height="20" x="541.779" y="177.815" rx="2.443"/><rect id="rect9793" width="29.048" height="20" x="541.779" y="203.021" rx="2.443" style="fill:#e580ff;fill-rule:evenodd;stroke:none"/><rect id="rect9795" width="29.048" height="20" x="578.106" y="177.815" rx="2.443" style="fill:#e580ff;fill-rule:evenodd;stroke:none"/><rect style="fill:#e580ff;fill-rule:evenodd;stroke:none" id="rect9797" width="29.048" height="20" x="578.106" y="203.021" rx="2.443"/><rect id="rect9799" width="29.048" height="20" x="423.163" y="381.98" rx="2.443" style="fill:#e580ff;fill-rule:evenodd;stroke:none"/><rect style="fill:#e580ff;fill-rule:evenodd;stroke:none" id="rect9801" width="29.048" height="20" x="423.163" y="407.185" rx="2.443"/><rect style="fill:#e580ff;fill-rule:evenodd;stroke:none" id="rect9803" width="29.048" height="20" x="493.592" y="381.98" rx="2.443"/><rect id="rect9805" width="29.048" height="20" x="493.592" y="407.185" rx="2.443" style="fill:#e580ff;fill-rule:evenodd;stroke:none"/><path id="path9829" d="m 13.344316,22.718287 c 0,22.782934 33.44087,27.429983 49.670511,27.429983" transform="translate(-128.48318,155.03173)" style="fill:none;stroke:#000;stroke-width:1px;stroke-linecap:butt;stroke-linejoin:miter;stroke-opacity:1"/><path style="fill:none;stroke:#000;stroke-width:1px;stroke-linecap:butt;stroke-linejoin:miter;stroke-opacity:1" id="path9831" d="m 13.344316,22.718287 c 0,22.782934 23.803308,125.288303 40.032949,125.288303" transform="translate(-128.48318,155.03173)"/><path id="path9833" d="m 13.344316,22.718287 c 0,22.782934 7.493588,228.336083 23.723229,228.336083" transform="translate(-128.48318,155.03173)" style="fill:none;stroke:#000;stroke-width:1px;stroke-linecap:butt;stroke-linejoin:miter;stroke-opacity:1"/><path id="path9835" d="m 293.57496,50.889621 c 16.30972,0 18.53377,-30.395387 32.61944,-30.395387" transform="translate(-128.48318,155.03173)" style="fill:none;stroke:#000;stroke-width:1px;stroke-linecap:butt;stroke-linejoin:miter;stroke-opacity:1"/><path style="fill:none;stroke:#000;stroke-width:1px;stroke-linecap:butt;stroke-linejoin:miter;stroke-opacity:1" id="path9837" d="m 293.57496,50.889621 c 16.30972,0 22.24052,0 36.32619,0" transform="translate(-128.48318,155.03173)"/><path id="path9839" d="m 293.57496,50.889621 c 16.30972,0 35.58484,31.136738 64.8682,31.136738" transform="translate(-128.48318,155.03173)" style="fill:none;stroke:#000;stroke-width:1px;stroke-linecap:butt;stroke-linejoin:miter;stroke-opacity:1"/><rect id="rect2985" width="232.26" height="20" x="-65.782" y="195.568" rx="2.443" style="fill:#f95;fill-rule:evenodd;stroke:none"/><path id="path9841" d="m 503.74794,46.812191 c -12.60296,0 -22.98188,-25.576606 -35.95552,-25.576606" transform="translate(-128.48318,155.03173)" style="fill:none;stroke:#000;stroke-width:1px;stroke-linecap:butt;stroke-linejoin:miter;stroke-opacity:1"/><path style="fill:none;stroke:#000;stroke-width:1px;stroke-linecap:butt;stroke-linejoin:miter;stroke-opacity:1" id="path9845" d="m 503.74794,46.812191 c -12.60296,0 -78.21252,4.448106 -91.18616,4.448106" transform="translate(-128.48318,155.03173)"/><path id="path9847" d="m 503.74794,46.812191 c -12.60296,0 -23.35255,34.472818 -45.59308,34.472818" transform="translate(-128.48318,155.03173)" style="fill:none;stroke:#000;stroke-width:1px;stroke-linecap:butt;stroke-linejoin:miter;stroke-opacity:1"/><rect id="rect9753" width="100.229" height="20" x="230.086" y="225.82" rx="1.614" style="fill:#76c5d9;fill-rule:evenodd;stroke:none;fill-opacity:1"/><path id="path9849" d="m 614.5799,46.812191 c 15.56837,0 43.7397,-14.085667 55.60132,-14.085667" transform="translate(-128.48318,155.03173)" style="fill:none;stroke:#000;stroke-width:1px;stroke-linecap:butt;stroke-linejoin:miter;stroke-opacity:1"/><path style="fill:none;stroke:#000;stroke-width:1px;stroke-linecap:butt;stroke-linejoin:miter;stroke-opacity:1" id="path9851" d="m 614.5799,46.812191 c 15.56837,0 43.7397,12.602966 55.60132,12.602966" transform="translate(-128.48318,155.03173)"/><path id="path9853" d="m 614.5799,46.812191 c 9.67416,0 51.3329,27.813303 74.55762,27.813303 14.2821,0 13.24974,-16.322363 17.74057,-16.322363" transform="translate(-128.48318,155.03173)" style="fill:none;stroke:#000;stroke-width:1px;stroke-linecap:butt;stroke-linejoin:miter;stroke-opacity:1"/><path style="fill:none;stroke:#000;stroke-width:1px;stroke-linecap:butt;stroke-linejoin:miter;stroke-opacity:1" id="path9855" d="m 614.5799,46.812191 c 8.70651,0 51.2232,-31.423127 71.68525,-31.423127 17.24192,0 15.01417,17.708136 20.24226,17.708136" transform="translate(-128.48318,155.03173)"/><path id="path9857" d="m 699.46458,32.726524 c 4.42358,0 -1.79381,11.433788 10.97985,11.433788 16.34862,0 54.89191,1.169177 61.67254,1.169177" transform="translate(-128.48318,155.03173)" style="fill:none;stroke:#000;stroke-width:1px;stroke-linecap:butt;stroke-linejoin:miter;stroke-opacity:1"/><path style="fill:none;stroke:#000;stroke-width:1px;stroke-linecap:butt;stroke-linejoin:miter;stroke-opacity:1" id="path9859" d="m 699.0939,58.673806 c 3.51397,0 -1.47413,-12.456008 9.66903,-12.456008 18.63093,0 55.29996,-0.888309 63.35404,-0.888309" transform="translate(-128.48318,155.03173)"/><path id="path9861" d="m 734.67874,58.673806 c 9.26689,0 24.46459,-13.344317 37.43823,-13.344317" transform="translate(-128.48318,155.03173)" style="fill:none;stroke:#000;stroke-width:1px;stroke-linecap:butt;stroke-linejoin:miter;stroke-opacity:1"/><path style="fill:none;stroke:#000;stroke-width:1px;stroke-linecap:butt;stroke-linejoin:miter;stroke-opacity:1" id="path9863" d="m 735.79077,31.243822 c 9.26689,0 23.35256,14.085667 36.3262,14.085667" transform="translate(-128.48318,155.03173)"/><path id="path9865" d="m 181.63097,147.63591 c 11.49094,0 19.27513,-29.65403 31.50742,-29.65403" transform="translate(-128.48318,155.03173)" style="fill:none;stroke:#000;stroke-width:1px;stroke-linecap:butt;stroke-linejoin:miter;stroke-opacity:1"/><path style="fill:none;stroke:#000;stroke-width:1px;stroke-linecap:butt;stroke-linejoin:miter;stroke-opacity:1" id="path9867" d="m 181.63097,147.63591 c 11.49094,0 97.48765,-0.74134 109.71994,-0.74134" transform="translate(-128.48318,155.03173)"/><path id="path9869" d="m 181.63097,147.63591 c 11.49094,0 23.72323,28.17135 35.95552,28.17135" transform="translate(-128.48318,155.03173)" style="fill:none;stroke:#000;stroke-width:1px;stroke-linecap:butt;stroke-linejoin:miter;stroke-opacity:1"/><path id="path9871" d="m 425.9061,138.36903 c -11.12027,0 -26.31796,-19.27513 -38.17958,-19.27513" transform="translate(-128.48318,155.03173)" style="fill:none;stroke:#000;stroke-width:1px;stroke-linecap:butt;stroke-linejoin:miter;stroke-opacity:1"/><path style="fill:none;stroke:#000;stroke-width:1px;stroke-linecap:butt;stroke-linejoin:miter;stroke-opacity:1" id="path9873" d="m 425.9061,138.36903 c -11.12027,0 -40.40363,9.63756 -52.26525,9.63756" transform="translate(-128.48318,155.03173)"/><path id="path9875" d="m 425.9061,138.36903 c -5.01648,0 -28.94963,14.07109 -54.3853,26.30713 -33.68457,16.20426 -62.90961,11.87244 -89.06611,11.87244" transform="translate(-128.48318,155.03173)" style="fill:none;stroke:#000;stroke-width:1px;stroke-linecap:butt;stroke-linejoin:miter;stroke-opacity:1"/><path id="path9877" d="m 535.62603,137.62768 c 15.19769,0 38.55025,-11.86162 53.37727,-11.86162" transform="translate(-128.48318,155.03173)" style="fill:none;stroke:#000;stroke-width:1px;stroke-linecap:butt;stroke-linejoin:miter;stroke-opacity:1"/><rect id="rect9771" width="111.198" height="20" x="296.613" y="281.875" rx="2.443" style="fill:#5fd35f;fill-rule:evenodd;stroke:none"/><path style="fill:none;stroke:#000;stroke-width:1px;stroke-linecap:butt;stroke-linejoin:miter;stroke-opacity:1" id="path9879" d="m 535.62603,137.62768 c 15.19769,0 36.3262,13.34431 51.15322,13.34431" transform="translate(-128.48318,155.03173)"/><path id="path9881" d="m 535.62603,137.62768 c 8.08346,0 17.77072,-23.84772 69.29122,-27.0876 45.343,-2.8514 133.19971,14.8553 140.14042,14.8553" transform="translate(-128.48318,155.03173)" style="fill:none;stroke:#000;stroke-width:1px;stroke-linecap:butt;stroke-linejoin:miter;stroke-opacity:1"/><path style="fill:none;stroke:#000;stroke-width:1px;stroke-linecap:butt;stroke-linejoin:miter;stroke-opacity:1" id="path9883" d="m 535.62603,137.62768 c 8.63971,0 14.25655,24.93934 68.52452,28.86798 41.1922,2.98205 134.1384,-14.78232 140.53644,-14.78232" transform="translate(-128.48318,155.03173)"/><rect style="fill:#e580ff;fill-rule:evenodd;stroke:none" id="rect9781" width="29.048" height="20" x="458.3" y="295.69" rx="2.443"/><path id="path9885" d="m 802.51236,136.88633 c -11.86162,0 -21.1285,-11.12027 -29.65404,-11.12027" transform="translate(-128.48318,155.03173)" style="fill:none;stroke:#000;stroke-width:1px;stroke-linecap:butt;stroke-linejoin:miter;stroke-opacity:1"/><path style="fill:none;stroke:#000;stroke-width:1px;stroke-linecap:butt;stroke-linejoin:miter;stroke-opacity:1" id="path9887" d="m 802.51236,136.88633 c -11.86162,0 -21.1285,14.08566 -29.65404,14.08566" transform="translate(-128.48318,155.03173)"/><rect id="rect9789" width="29.048" height="20" x="615.915" y="295.69" rx="2.443" style="fill:#e580ff;fill-rule:evenodd;stroke:none"/><path id="path9889" d="m 802.51236,136.88633 c -4.56409,0 -20.51997,1.89069 -55.49452,1.89069 -43.64482,0 -126.45149,12.56565 -131.69659,12.56565" transform="translate(-128.48318,155.03173)" style="fill:none;stroke:#000;stroke-width:1px;stroke-linecap:butt;stroke-linejoin:miter;stroke-opacity:1"/><path style="fill:none;stroke:#000;stroke-width:1px;stroke-linecap:butt;stroke-linejoin:miter;stroke-opacity:1" id="path9891" d="m 802.51236,136.88633 c -4.89805,0 -20.20268,-0.18248 -55.96023,-0.18248 -43.32532,0 -126.22581,-11.30846 -131.23088,-11.30846" transform="translate(-128.48318,155.03173)"/><rect id="rect9779" width="29.048" height="20" x="458.3" y="270.484" rx="2.443" style="fill:#e580ff;fill-rule:evenodd;stroke:none"/><rect style="fill:#e580ff;fill-rule:evenodd;stroke:none" id="rect9787" width="29.048" height="20" x="615.915" y="270.484" rx="2.443"/><path id="path9893" d="m 183.11367,250.31301 c 20.38716,0 25.94729,-29.28336 40.7743,-29.28336" transform="translate(-128.48318,155.03173)" style="fill:none;stroke:#000;stroke-width:1px;stroke-linecap:butt;stroke-linejoin:miter;stroke-opacity:1"/><path style="fill:none;stroke:#000;stroke-width:1px;stroke-linecap:butt;stroke-linejoin:miter;stroke-opacity:1" id="path9895" d="m 183.11367,250.31301 c 11.12027,0 27.05932,0 41.88633,0" transform="translate(-128.48318,155.03173)"/><path id="path9897" d="m 183.11367,250.31301 c 15.11665,0 16.8994,13.38469 40.86279,19.2865 37.05692,9.12655 90.61894,12.22091 99.62321,12.22091" transform="translate(-128.48318,155.03173)" style="fill:none;stroke:#000;stroke-width:1px;stroke-linecap:butt;stroke-linejoin:miter;stroke-opacity:1"/><path id="path9899" d="m 436.65568,254.39044 c -15.19769,0 -21.86985,-33.73146 -38.17957,-33.73146" transform="translate(-128.48318,155.03173)" style="fill:none;stroke:#000;stroke-width:1px;stroke-linecap:butt;stroke-linejoin:miter;stroke-opacity:1"/><path style="fill:none;stroke:#000;stroke-width:1px;stroke-linecap:butt;stroke-linejoin:miter;stroke-opacity:1" id="path9901" d="m 436.65568,254.39044 c -15.19769,0 -113.05601,-2.59472 -129.36573,-2.59472" transform="translate(-128.48318,155.03173)"/><rect style="fill:#76c5d9;fill-rule:evenodd;stroke:none;fill-opacity:1" id="rect9767" width="83.642" height="20" x="96.439" y="395.69" rx="1.614"/><path id="path9903" d="m 436.65568,254.39044 c -15.19769,0 -31.87809,27.42999 -48.18781,27.42999" transform="translate(-128.48318,155.03173)" style="fill:none;stroke:#000;stroke-width:1px;stroke-linecap:butt;stroke-linejoin:miter;stroke-opacity:1"/><rect id="rect9769" width="65.827" height="20" x="194.732" y="425.793" rx="1.614" style="fill:#76c5d9;fill-rule:evenodd;stroke:none;fill-opacity:1"/><path id="path9905" d="m 518.57496,254.39044 c 10.74959,0 20.75782,-17.05107 32.99011,-17.05107" transform="translate(-128.48318,155.03173)" style="fill:none;stroke:#000;stroke-width:1px;stroke-linecap:butt;stroke-linejoin:miter;stroke-opacity:1"/><path style="fill:none;stroke:#000;stroke-width:1px;stroke-linecap:butt;stroke-linejoin:miter;stroke-opacity:1" id="path9907" d="m 518.57496,254.39044 c 10.74959,0 20.75782,8.52554 32.99011,8.52554" transform="translate(-128.48318,155.03173)"/><path id="path9909" d="m 518.57496,254.39044 c 6.71374,0 14.51854,20.00597 41.89619,22.50309 16.45762,1.50111 56.55906,-13.97755 61.15158,-13.97755" transform="translate(-128.48318,155.03173)" style="fill:none;stroke:#000;stroke-width:1px;stroke-linecap:butt;stroke-linejoin:miter;stroke-opacity:1"/><path style="fill:none;stroke:#000;stroke-width:1px;stroke-linecap:butt;stroke-linejoin:miter;stroke-opacity:1" id="path9911" d="m 518.57496,254.39044 c 6.76897,0 11.66288,-27.51885 39.37543,-32.52613 16.29692,-2.94463 59.88401,15.47506 64.41369,15.47506" transform="translate(-128.48318,155.03173)"/><path id="path9913" d="M 686.86161,248.45964 C 675.37068,248.08896 664.99176,237.71005 650.9061,237.71005" transform="translate(-128.48318,155.03173)" style="fill:none;stroke:#000;stroke-width:1px;stroke-linecap:butt;stroke-linejoin:miter;stroke-opacity:1"/><path style="fill:none;stroke:#000;stroke-width:1px;stroke-linecap:butt;stroke-linejoin:miter;stroke-opacity:1" id="path9915" d="m 686.86161,248.45964 c -11.49093,-0.37068 -21.86985,14.45634 -35.95551,14.45634" transform="translate(-128.48318,155.03173)"/><path id="path9917" d="m 686.86161,248.45964 c -6.44154,-0.20779 -37.34779,2.04642 -63.67283,2.04642 -20.41385,0 -36.52144,11.66857 -42.71102,11.66857" transform="translate(-128.48318,155.03173)" style="fill:none;stroke:#000;stroke-width:1px;stroke-linecap:butt;stroke-linejoin:miter;stroke-opacity:1"/><path style="fill:none;stroke:#000;stroke-width:1px;stroke-linecap:butt;stroke-linejoin:miter;stroke-opacity:1" id="path9919" d="m 686.86161,248.45964 c -6.7941,-0.21917 -36.64881,-0.36798 -64.08343,-0.36798 -18.83516,0 -36.91369,-11.12296 -42.6711,-11.12296" transform="translate(-128.48318,155.03173)"/></g></svg>