<svg xmlns="http://www.w3.org/2000/svg" xmlns:illustrator="http://ns.adobe.com/illustrator/1.0/" xmlns:osb="http://www.openswatchbook.org/uri/2009/osb" xmlns:pdf="http://ns.adobe.com/pdf/1.3/" xmlns:stDim="http://ns.adobe.com/xap/1.0/sType/Dimensions#" xmlns:stEvt="http://ns.adobe.com/xap/1.0/sType/ResourceEvent#" xmlns:stFnt="http://ns.adobe.com/xap/1.0/sType/Font#" xmlns:stRef="http://ns.adobe.com/xap/1.0/sType/ResourceRef#" xmlns:svg="http://www.w3.org/2000/svg" xmlns:x="adobe:ns:meta/" xmlns:xlink="http://www.w3.org/1999/xlink" xmlns:xmp="http://ns.adobe.com/xap/1.0/" xmlns:xmpG="http://ns.adobe.com/xap/1.0/g/" xmlns:xmpGImg="http://ns.adobe.com/xap/1.0/g/img/" xmlns:xmpMM="http://ns.adobe.com/xap/1.0/mm/" xmlns:xmpTPg="http://ns.adobe.com/xap/1.0/t/pg/" id="Layer_1" width="383.949" height="196.482" x="0" y="0" enable-background="new 0 0 800 600" version="1.1" viewBox="0 0 383.949 196.482" xml:space="preserve"><defs id="defs8167"><filter id="filter6048" color-interpolation-filters="sRGB"><feGaussianBlur id="feGaussianBlur6050" stdDeviation=".806"/></filter><linearGradient id="linearGradient6082" x1="590.906" x2="712.906" y1="62.924" y2="62.924" gradientTransform="matrix(0.65444882,0,0,1.0067169,-166.88393,-162.62436)" gradientUnits="userSpaceOnUse" xlink:href="#linearGradient5587"/><linearGradient id="linearGradient5587" osb:paint="solid"><stop style="stop-color:#d9d5d2;stop-opacity:1" id="stop5589" offset="0"/></linearGradient><linearGradient id="linearGradient6070" x1="590.906" x2="712.906" y1="62.924" y2="62.924" gradientTransform="matrix(0.65444882,0,0,1.0067169,-166.88393,-162.62436)" gradientUnits="userSpaceOnUse" xlink:href="#linearGradient5587"/><linearGradient id="linearGradient7554" osb:paint="solid"><stop style="stop-color:#d9d5d2;stop-opacity:1" id="stop7556" offset="0"/></linearGradient><linearGradient id="linearGradient6058" x1="590.906" x2="712.906" y1="62.924" y2="62.924" gradientTransform="matrix(0.65444882,0,0,1.0067169,-166.88393,-162.62436)" gradientUnits="userSpaceOnUse" xlink:href="#linearGradient5587"/><linearGradient id="linearGradient7563" osb:paint="solid"><stop style="stop-color:#d9d5d2;stop-opacity:1" id="stop7565" offset="0"/></linearGradient><filter id="filter8602" color-interpolation-filters="sRGB"><feGaussianBlur id="feGaussianBlur8604" stdDeviation=".857"/></filter><linearGradient id="linearGradient8620" x1="590.906" x2="712.906" y1="62.924" y2="62.924" gradientTransform="matrix(0.71169876,0,0,1.0054954,-559.4485,251.48589)" gradientUnits="userSpaceOnUse" xlink:href="#linearGradient5587"/><linearGradient id="linearGradient8632" x1="590.906" x2="712.906" y1="62.924" y2="62.924" gradientTransform="matrix(0.71169876,0,0,1.0054954,-559.4485,251.48589)" gradientUnits="userSpaceOnUse" xlink:href="#linearGradient5587"/><linearGradient id="linearGradient8644" x1="590.906" x2="712.906" y1="62.924" y2="62.924" gradientTransform="matrix(0.71169876,0,0,1.0054954,-559.4485,251.48589)" gradientUnits="userSpaceOnUse" xlink:href="#linearGradient5587"/><linearGradient id="linearGradient8656" x1="590.906" x2="712.906" y1="62.924" y2="62.924" gradientTransform="matrix(0.71169876,0,0,1.0054954,-559.4485,251.48589)" gradientUnits="userSpaceOnUse" xlink:href="#linearGradient5587"/><filter id="filter8729" color-interpolation-filters="sRGB"><feGaussianBlur id="feGaussianBlur8731" stdDeviation=".388"/></filter></defs><metadata id="metadata6997"><?xpacket begin="" id="W5M0MpCehiHzreSzNTczkc9d"?><x:xmpmeta x:xmptk="Adobe XMP Core 4.2.2-c063 53.351735, 2008/07/22-18:11:12"><metadata id="metadata8169"/></x:xmpmeta><?xpacket end="w"?></metadata><g id="g8718" transform="matrix(-1,0,0,1,634.58855,-226.18481)"><g id="g8720"><line id="line8722" x1="391.612" x2="300.736" y1="384.262" y2="293.387" style="fill:none;stroke:#303539;stroke-width:2.5;stroke-miterlimit:4;stroke-dasharray:none"/></g><polygon id="polygon8724" points="474.069 388.447 478.311 392.688 482.55 388.447 482.55 392.045 478.311 396.284 474.069 392.045" transform="matrix(0.70710678,-0.70710678,0.70710678,0.70710678,-225.34007,443.51834)" style="fill:#303539;stroke-width:2.5;stroke-miterlimit:4;stroke-dasharray:none"/></g><g id="g8713" transform="translate(-65.291759,-226.18481)"><g id="g8710"><line style="fill:none;stroke:#303539;stroke-width:2.5;stroke-miterlimit:4;stroke-dasharray:none" id="line8700" x1="391.612" x2="300.736" y1="384.262" y2="293.387"/></g><polygon style="fill:#303539;stroke-width:2.5;stroke-miterlimit:4;stroke-dasharray:none" id="polygon8708" points="482.55 392.045 478.311 396.284 474.069 392.045 474.069 388.447 478.311 392.688 482.55 388.447" transform="matrix(0.70710678,-0.70710678,0.70710678,0.70710678,-225.34007,443.51834)"/></g><g id="g8670" transform="translate(-91.813321,-221.22793)"><line style="fill:none;stroke:#303539;stroke-width:2.5;stroke-miterlimit:4;stroke-dasharray:none" id="line10377" x1="297.299" x2="297.299" y1="378.093" y2="287.477"/><polygon style="fill:#303539;stroke-width:2.5;stroke-miterlimit:4;stroke-dasharray:none" id="polygon10381" points="482.55 388.447 482.55 392.045 478.311 396.284 474.069 392.045 474.069 388.447 478.311 392.688" transform="translate(-181.01231,-15)"/></g><g id="g8662" transform="translate(-67.813321,-221.22793)"><line id="line7021" x1="178.311" x2="178.311" y1="377.978" y2="280.054" style="fill:none;stroke:#303539;stroke-width:2.5;stroke-miterlimit:4;stroke-dasharray:none"/><polygon id="polygon7025" points="218.311 392.688 222.55 388.447 222.55 392.045 218.311 396.284 214.07 392.045 214.07 388.447" transform="translate(-40,-15)" style="fill:#303539;stroke-width:2.5;stroke-miterlimit:4;stroke-dasharray:none"/></g><g id="g8658" transform="translate(-55.813321,-221.22793)"><line id="line7057" x1="228.311" x2="228.311" y1="378.035" y2="283.766" style="fill:none;stroke:#303539;stroke-width:2.5;stroke-miterlimit:4;stroke-dasharray:none"/><polygon id="polygon7061" points="264.07 392.045 264.07 388.447 268.311 392.688 272.55 388.447 272.55 392.045 268.311 396.284" transform="translate(-40,-15)" style="fill:#303539;stroke-width:2.5;stroke-miterlimit:4;stroke-dasharray:none"/></g><line style="fill:none;stroke:#303539;stroke-width:2.5;stroke-miterlimit:4;stroke-dasharray:none" id="line7093" x1="364.498" x2="364.498" y1="156.73" y2="57.589"/><polygon style="fill:#303539;stroke-width:2.5;stroke-miterlimit:4;stroke-dasharray:none" id="polygon7097" points="474.069 388.447 478.311 392.688 482.55 388.447 482.55 392.045 478.311 396.284 474.069 392.045" transform="translate(-113.81332,-236.22793)"/><g id="g8733" transform="translate(-139.66817,-222.74758)"><ellipse id="ellipse8727" cx="478.7" cy="358.658" d="m 491.89001,358.65799 c 0,6.99579 -5.90536,12.667 -13.19,12.667 -7.28463,0 -13.19,-5.67121 -13.19,-12.667 0,-6.99579 5.90537,-12.667 13.19,-12.667 7.28464,0 13.19,5.67121 13.19,12.667 z" rx="13.19" ry="12.667" transform="translate(27.324265,-29.554779)" style="opacity:.5;fill:#000;fill-opacity:1;stroke:none;filter:url(#filter8729)"/><ellipse style="fill:#fff;fill-opacity:1;stroke:#303539;stroke-width:.5" id="ellipse7109" cx="478.7" cy="358.658" d="m 491.89001,358.65799 c 0,6.99579 -5.90536,12.667 -13.19,12.667 -7.28463,0 -13.19,-5.67121 -13.19,-12.667 0,-6.99579 5.90537,-12.667 13.19,-12.667 7.28464,0 13.19,5.67121 13.19,12.667 z" rx="13.19" ry="12.667" transform="translate(25.324265,-31.554779)"/><path id="path7113" d="m 493.56026,321.83222 c 0.463,-0.116 0.998,-0.188 1.621,-0.188 0.884,0 1.637,0.188 2.158,0.681 0.42,0.391 0.637,0.971 0.637,1.665 0,0.999 -0.551,1.781 -1.506,2.157 v 0.044 c 1.129,0.304 1.811,1.216 1.811,2.491 0,0.811 -0.262,1.462 -0.695,1.939 -0.551,0.623 -1.463,0.884 -2.578,0.884 -0.709,0 -1.144,-0.044 -1.447,-0.102 v -9.571 z m 1.1,3.996 h 0.508 c 0.912,0 1.693,-0.695 1.693,-1.723 0,-0.898 -0.42,-1.594 -1.607,-1.594 -0.26,0 -0.463,0.029 -0.594,0.072 v 3.245 z m 0,4.735 c 0.131,0.028 0.318,0.058 0.565,0.058 1.144,0 1.896,-0.68 1.896,-1.939 0,-1.348 -0.927,-1.984 -1.97,-1.999 h -0.492 v 3.88 z" style="fill:#d93d04"/><path id="path7115" d="m 500.17626,324.12422 v 4.911 c 0,1.314 0.445,1.76 0.989,1.76 0.619,0 1.021,-0.479 1.021,-1.76 v -4.911 h 0.837 v 4.78 c 0,1.901 -0.782,2.629 -1.868,2.629 -1.098,0 -1.814,-0.717 -1.814,-2.531 v -4.878 h 0.835 z" style="fill:#d93d04"/><path id="path7117" d="m 505.14826,324.12422 v 7.323 h -0.836 v -7.323 h 0.836 z" style="fill:#d93d04"/><path id="path7119" d="m 506.47226,324.12422 h 0.836 v 6.616 h 2.054 v 0.707 h -2.89 v -7.323 z" style="fill:#d93d04"/><path id="path7121" d="m 510.21926,324.23222 c 0.314,-0.098 0.706,-0.141 1.119,-0.141 0.771,0 1.314,0.195 1.716,0.554 0.565,0.489 0.989,1.435 0.989,2.966 0,1.674 -0.413,2.586 -0.881,3.097 -0.478,0.532 -1.173,0.782 -2.021,0.782 -0.337,0 -0.685,-0.021 -0.923,-0.076 v -7.182 z m 0.825,6.541 c 0.12,0.021 0.239,0.021 0.315,0.021 0.924,0 1.814,-0.674 1.814,-3.162 0,-1.846 -0.565,-2.856 -1.738,-2.856 -0.131,0 -0.283,0.011 -0.392,0.043 v 5.954 z" style="fill:#d93d04"/></g><g id="g8666" transform="translate(-65.813321,-221.22793)"><line id="line7831" x1="107.311" x2="107.311" y1="378.045" y2="284.384" style="fill:none;stroke:#303539;stroke-width:2.5;stroke-miterlimit:4;stroke-dasharray:none"/><polygon id="polygon7835" points="143.07 388.447 147.311 392.688 151.55 388.447 151.55 392.045 147.311 396.284 143.07 392.045" transform="translate(-40,-15)" style="fill:#303539;stroke-width:2.5;stroke-miterlimit:4;stroke-dasharray:none"/></g><line id="line7657-1" x1="46.912" x2="102.912" y1="40.778" y2="40.778" style="fill:none;stroke:#303539;stroke-width:2"/><line id="line7659-1" x1="46.912" x2="102.912" y1="36.778" y2="36.778" style="fill:none;stroke:#303539;stroke-width:2"/><line id="line7661-3" x1="46.912" x2="102.912" y1="32.778" y2="32.778" style="fill:none;stroke:#303539;stroke-width:2"/><line id="line7663-3" x1="46.912" x2="102.912" y1="28.778" y2="28.778" style="fill:none;stroke:#303539;stroke-width:2"/><line id="line7665-3" x1="46.912" x2="102.912" y1="24.778" y2="24.778" style="fill:none;stroke:#303539;stroke-width:2"/><line id="line7667-7" x1="46.912" x2="102.912" y1="20.778" y2="20.778" style="fill:none;stroke:#303539;stroke-width:2"/><path style="fill:#d93d04" id="path7671" d="m 66.887319,17.916998 c -0.918,-0.378 -2.143,-0.954 -2.791,-1.314 -0.198,-0.108 -0.36,-0.18 -0.45,-0.18 -1.999,0 -3.403,-1.999 -3.403,-6.23 0,-4.0510002 1.458,-6.1930002 3.583,-6.1930002 2.071,0 3.295,2.269 3.295,6.1210002 0,3.313 -0.774,5.132 -2.07,5.744 v 0.054 c 0.81,0.36 1.638,0.631 2.358,0.883 l -0.522,1.115 z m -1.207,-7.743 c 0,-2.3230002 -0.414,-4.9520002 -1.962,-4.9520002 -1.566,0 -2.035,2.647 -2.035,4.9700002 -0.018,2.377 0.45,5.006 2.053,5.006 1.53,0 1.944,-2.629 1.944,-5.024 z"/><path style="fill:#d93d04" id="path7673" d="m 69.325319,8.1939978 v 5.4220002 c 0,1.451 0.492,1.942 1.092,1.942 0.684,0 1.127,-0.527 1.127,-1.942 V 8.1939978 h 0.923 v 5.2770002 c 0,2.099 -0.864,2.902 -2.063,2.902 -1.211,0 -2.003,-0.791 -2.003,-2.794 V 8.1929978 h 0.924 z"/><path style="fill:#d93d04" id="path7675" d="m 76.848319,12.439998 h -2.027 v 3.034 h 2.303 v 0.804 h -3.226 V 8.1939978 h 3.082 v 0.804 h -2.159 v 2.6630002 h 2.027 v 0.779 z"/><path style="fill:#d93d04" id="path7677" d="m 79.058319,8.1939978 v 5.4220002 c 0,1.451 0.492,1.942 1.091,1.942 0.684,0 1.127,-0.527 1.127,-1.942 V 8.1939978 h 0.923 v 5.2770002 c 0,2.099 -0.864,2.902 -2.063,2.902 -1.211,0 -2.003,-0.791 -2.003,-2.794 V 8.1929978 h 0.925 z"/><path style="fill:#d93d04" id="path7679" d="m 86.580319,12.439998 h -2.027 v 3.034 h 2.303 v 0.804 h -3.226 V 8.1939978 h 3.082 v 0.804 h -2.159 v 2.6630002 h 2.027 v 0.779 z"/><line id="line7717-7" x1="176.912" x2="232.912" y1="40.778" y2="40.778" style="fill:none;stroke:#303539;stroke-width:2"/><line id="line7719-3" x1="176.912" x2="232.912" y1="36.778" y2="36.778" style="fill:none;stroke:#303539;stroke-width:2"/><line id="line7721-2" x1="176.912" x2="232.912" y1="32.778" y2="32.778" style="fill:none;stroke:#303539;stroke-width:2"/><line id="line7723-4" x1="176.912" x2="232.912" y1="28.778" y2="28.778" style="fill:none;stroke:#303539;stroke-width:2"/><path style="fill:#d93d04" id="path7727-8" d="m 196.88733,25.916998 c -0.918,-0.378 -2.143,-0.954 -2.791,-1.314 -0.198,-0.108 -0.36,-0.18 -0.45,-0.18 -1.999,0 -3.403,-1.999 -3.403,-6.23 0,-4.051 1.458,-6.193 3.583,-6.193 2.071,0 3.295,2.269 3.295,6.121 0,3.313 -0.774,5.132 -2.07,5.744 v 0.054 c 0.81,0.36 1.638,0.631 2.358,0.883 l -0.522,1.115 z m -1.207,-7.743 c 0,-2.323 -0.414,-4.952 -1.962,-4.952 -1.566,0 -2.035,2.647 -2.035,4.97 -0.018,2.377 0.45,5.006 2.053,5.006 1.53,0 1.944,-2.629 1.944,-5.024 z"/><path style="fill:#d93d04" id="path7729-6" d="m 199.32533,16.193998 v 5.422 c 0,1.451 0.492,1.942 1.092,1.942 0.684,0 1.127,-0.527 1.127,-1.942 v -5.422 h 0.923 v 5.277 c 0,2.099 -0.864,2.902 -2.063,2.902 -1.211,0 -2.003,-0.791 -2.003,-2.794 v -5.386 h 0.924 z"/><path style="fill:#d93d04" id="path7731-5" d="m 206.84833,20.439998 h -2.027 v 3.034 h 2.303 v 0.804 h -3.226 v -8.084 h 3.082 v 0.804 h -2.159 v 2.663 h 2.027 v 0.779 z"/><path style="fill:#d93d04" id="path7733-6" d="m 209.05833,16.193998 v 5.422 c 0,1.451 0.492,1.942 1.091,1.942 0.684,0 1.127,-0.527 1.127,-1.942 v -5.422 h 0.923 v 5.277 c 0,2.099 -0.864,2.902 -2.063,2.902 -1.211,0 -2.003,-0.791 -2.003,-2.794 v -5.386 h 0.925 z"/><path style="fill:#d93d04" id="path7735-0" d="m 216.58033,20.439998 h -2.027 v 3.034 h 2.303 v 0.804 h -3.226 v -8.084 h 3.082 v 0.804 h -2.159 v 2.663 h 2.027 v 0.779 z"/><line id="line7773-3" x1="306.912" x2="362.912" y1="40.778" y2="40.778" style="fill:none;stroke:#303539;stroke-width:2"/><line id="line7775-6" x1="306.912" x2="362.912" y1="36.778" y2="36.778" style="opacity:.97000002;fill:none;stroke:#303539;stroke-width:2"/><line id="line7777-8" x1="306.912" x2="362.912" y1="32.778" y2="32.778" style="fill:none;stroke:#303539;stroke-width:2"/><line id="line7779-3" x1="306.912" x2="362.912" y1="28.778" y2="28.778" style="fill:none;stroke:#303539;stroke-width:2"/><line id="line7781-2" x1="306.912" x2="362.912" y1="24.778" y2="24.778" style="fill:none;stroke:#303539;stroke-width:2"/><line id="line7783-3" x1="306.912" x2="362.912" y1="20.778" y2="20.778" style="fill:none;stroke:#303539;stroke-width:2"/><line id="line7785" x1="306.912" x2="362.912" y1="16.778" y2="16.778" style="fill:none;stroke:#303539;stroke-width:2"/><path style="fill:#d93d04" id="path7789" d="m 326.88733,13.916998 c -0.918,-0.378 -2.143,-0.954 -2.791,-1.314 -0.197,-0.108 -0.359,-0.18 -0.45,-0.18 -1.999,0 -3.403,-1.999 -3.403,-6.2300002 0,-4.051 1.459,-6.1930000249825 3.584,-6.1930000249825 2.07,0 3.295,2.2690000249825 3.295,6.1210000249825 0,3.313 -0.774,5.1320002 -2.07,5.7440002 v 0.054 c 0.81,0.36 1.638,0.631 2.357,0.883 l -0.522,1.115 z m -1.207,-7.7430002 c 0,-2.323 -0.414,-4.952 -1.962,-4.952 -1.566,0 -2.034,2.647 -2.034,4.97 -0.019,2.377 0.449,5.0060002 2.053,5.0060002 1.529,0 1.943,-2.6290002 1.943,-5.0240002 z"/><path style="fill:#d93d04" id="path7791" d="m 329.32533,4.1939978 v 5.422 c 0,1.4510002 0.492,1.9420002 1.092,1.9420002 0.684,0 1.128,-0.527 1.128,-1.9420002 v -5.422 h 0.923 v 5.277 c 0,2.0990002 -0.864,2.9020002 -2.063,2.9020002 -1.211,0 -2.002,-0.791 -2.002,-2.7940002 v -5.386 h 0.922 z"/><path style="fill:#d93d04" id="path7793" d="m 336.84833,8.4399978 h -2.026 v 3.0340002 h 2.303 v 0.804 h -3.226 V 4.1939978 h 3.082 v 0.804 h -2.159 v 2.663 h 2.026 v 0.779 z"/><path style="fill:#d93d04" id="path7795" d="m 339.05833,4.1939978 v 5.422 c 0,1.4510002 0.491,1.9420002 1.091,1.9420002 0.684,0 1.128,-0.527 1.128,-1.9420002 v -5.422 h 0.923 v 5.277 c 0,2.0990002 -0.863,2.9020002 -2.063,2.9020002 -1.211,0 -2.003,-0.791 -2.003,-2.7940002 v -5.386 h 0.924 z"/><path style="fill:#d93d04" id="path7797" d="m 346.58033,8.4399978 h -2.027 v 3.0340002 h 2.303 v 0.804 h -3.226 V 4.1939978 h 3.082 v 0.804 h -2.159 v 2.663 h 2.027 v 0.779 z"/><g id="g6052" transform="translate(-184.09265,159.24848)"><path id="path6040" d="m 301.34926,-84.173093 c 0,0.553694 -0.2945,1.006717 -0.65444,1.006717 h -77.87941 c -0.35995,0 -0.65445,-0.453023 -0.65445,-1.006717 v -26.209877 c 0,-0.55369 0.2945,-1.00671 0.65445,-1.00671 h 77.87941 c 0.35994,0 0.65444,0.45302 0.65444,1.00671 v 26.209877 z" style="opacity:.5;fill:#000;fill-opacity:1;stroke:none;filter:url(#filter6048)"/><path style="fill:url(#linearGradient6058);fill-opacity:1;stroke:#303539;stroke-width:.81169248" id="path6026" d="m 299.34926,-86.173093 c 0,0.553694 -0.2945,1.006717 -0.65444,1.006717 h -77.87941 c -0.35995,0 -0.65445,-0.453023 -0.65445,-1.006717 v -26.209877 c 0,-0.55369 0.2945,-1.00671 0.65445,-1.00671 h 77.87941 c 0.35994,0 0.65444,0.45302 0.65444,1.00671 v 26.209877 z"/><text id="text6028" x="259.6" y="-93.534" xml:space="preserve" style="font-size:16px;font-style:normal;font-variant:normal;font-weight:600;font-stretch:normal;text-align:center;line-height:125%;letter-spacing:0;word-spacing:0;text-anchor:middle;fill:#000;fill-opacity:1;stroke:none;font-family:FreeSans;-inkscape-font-specification:FreeSans Semi-Bold"><tspan id="tspan6030" x="259.6" y="-93.534">Builder</tspan></text></g><g id="g6060" transform="translate(-55.000837,159.24848)"><path style="opacity:.5;fill:#000;fill-opacity:1;stroke:none;filter:url(#filter6048)" id="path6062" d="m 301.34926,-84.173093 c 0,0.553694 -0.2945,1.006717 -0.65444,1.006717 h -77.87941 c -0.35995,0 -0.65445,-0.453023 -0.65445,-1.006717 v -26.209877 c 0,-0.55369 0.2945,-1.00671 0.65445,-1.00671 h 77.87941 c 0.35994,0 0.65444,0.45302 0.65444,1.00671 v 26.209877 z"/><path id="path6064" d="m 299.34926,-86.173093 c 0,0.553694 -0.2945,1.006717 -0.65444,1.006717 h -77.87941 c -0.35995,0 -0.65445,-0.453023 -0.65445,-1.006717 v -26.209877 c 0,-0.55369 0.2945,-1.00671 0.65445,-1.00671 h 77.87941 c 0.35994,0 0.65444,0.45302 0.65444,1.00671 v 26.209877 z" style="fill:url(#linearGradient6070);fill-opacity:1;stroke:#303539;stroke-width:.81169248"/><text style="font-size:16px;font-style:normal;font-variant:normal;font-weight:600;font-stretch:normal;text-align:center;line-height:125%;letter-spacing:0;word-spacing:0;text-anchor:middle;fill:#000;fill-opacity:1;stroke:none;font-family:FreeSans;-inkscape-font-specification:FreeSans Semi-Bold" id="text6066" x="259.6" y="-93.534" xml:space="preserve"><tspan id="tspan6068" x="259.6" y="-93.534">Builder</tspan></text></g><g id="g6072" transform="translate(73.498799,159.24848)"><path id="path6074" d="m 301.34926,-84.173093 c 0,0.553694 -0.2945,1.006717 -0.65444,1.006717 h -77.87941 c -0.35995,0 -0.65445,-0.453023 -0.65445,-1.006717 v -26.209877 c 0,-0.55369 0.2945,-1.00671 0.65445,-1.00671 h 77.87941 c 0.35994,0 0.65444,0.45302 0.65444,1.00671 v 26.209877 z" style="opacity:.5;fill:#000;fill-opacity:1;stroke:none;filter:url(#filter6048)"/><path style="fill:url(#linearGradient6082);fill-opacity:1;stroke:#303539;stroke-width:.81169248" id="path6076" d="m 299.34926,-86.173093 c 0,0.553694 -0.2945,1.006717 -0.65444,1.006717 h -77.87941 c -0.35995,0 -0.65445,-0.453023 -0.65445,-1.006717 v -26.209877 c 0,-0.55369 0.2945,-1.00671 0.65445,-1.00671 h 77.87941 c 0.35994,0 0.65444,0.45302 0.65444,1.00671 v 26.209877 z"/><text id="text6078" x="259.6" y="-93.534" xml:space="preserve" style="font-size:16px;font-style:normal;font-variant:normal;font-weight:600;font-stretch:normal;text-align:center;line-height:125%;letter-spacing:0;word-spacing:0;text-anchor:middle;fill:#000;fill-opacity:1;stroke:none;font-family:FreeSans;-inkscape-font-specification:FreeSans Semi-Bold"><tspan id="tspan6080" x="259.6" y="-93.534">Builder</tspan></text></g><g id="g8614" transform="translate(138.96862,-136.4256)"><path style="opacity:.5;fill:#000;fill-opacity:1;stroke:none;filter:url(#filter8602)" id="path8090" d="m -50.430109,329.8444 c 0,0.55302 -0.320263,1.00549 -0.71169,1.00549 h -84.692151 c -0.39144,0 -0.7117,-0.45247 -0.7117,-1.00549 v -26.17808 c 0,-0.55302 0.32026,-1.00549 0.7117,-1.00549 h 84.692151 c 0.391427,0 0.71169,0.45247 0.71169,1.00549 v 26.17808 z"/><path id="path8062" d="m -52.430109,327.8444 c 0,0.55302 -0.320263,1.00549 -0.71169,1.00549 h -84.692151 c -0.39144,0 -0.7117,-0.45247 -0.7117,-1.00549 v -26.17808 c 0,-0.55302 0.32026,-1.00549 0.7117,-1.00549 h 84.692151 c 0.391427,0 0.71169,0.45247 0.71169,1.00549 v 26.17808 z" style="fill:url(#linearGradient8620);fill-opacity:1;stroke:#303539;stroke-width:.84593725"/><text style="font-size:16px;font-style:normal;font-variant:normal;font-weight:600;font-stretch:normal;text-align:center;line-height:125%;letter-spacing:0;word-spacing:0;text-anchor:middle;fill:#000;fill-opacity:1;stroke:none;font-family:FreeSans;-inkscape-font-specification:FreeSans Semi-Bold" id="text8064" x="-95.816" y="320.499" xml:space="preserve"><tspan id="tspan8066" x="-95.816" y="320.499">Buildslave</tspan></text></g><g id="g8622" transform="translate(236.75305,-136.4256)"><path id="path8624" d="m -50.430109,329.8444 c 0,0.55302 -0.320263,1.00549 -0.71169,1.00549 h -84.692151 c -0.39144,0 -0.7117,-0.45247 -0.7117,-1.00549 v -26.17808 c 0,-0.55302 0.32026,-1.00549 0.7117,-1.00549 h 84.692151 c 0.391427,0 0.71169,0.45247 0.71169,1.00549 v 26.17808 z" style="opacity:.5;fill:#000;fill-opacity:1;stroke:none;filter:url(#filter8602)"/><path style="fill:url(#linearGradient8632);fill-opacity:1;stroke:#303539;stroke-width:.84593725" id="path8626" d="m -52.430109,327.8444 c 0,0.55302 -0.320263,1.00549 -0.71169,1.00549 h -84.692151 c -0.39144,0 -0.7117,-0.45247 -0.7117,-1.00549 v -26.17808 c 0,-0.55302 0.32026,-1.00549 0.7117,-1.00549 h 84.692151 c 0.391427,0 0.71169,0.45247 0.71169,1.00549 v 26.17808 z"/><text id="text8628" x="-95.816" y="320.499" xml:space="preserve" style="font-size:16px;font-style:normal;font-variant:normal;font-weight:600;font-stretch:normal;text-align:center;line-height:125%;letter-spacing:0;word-spacing:0;text-anchor:middle;fill:#000;fill-opacity:1;stroke:none;font-family:FreeSans;-inkscape-font-specification:FreeSans Semi-Bold"><tspan id="tspan8630" x="-95.816" y="320.499">Buildslave</tspan></text></g><g id="g8634" transform="translate(432.32191,-136.4256)"><path style="opacity:.5;fill:#000;fill-opacity:1;stroke:none;filter:url(#filter8602)" id="path8636" d="m -50.430109,329.8444 c 0,0.55302 -0.320263,1.00549 -0.71169,1.00549 h -84.692151 c -0.39144,0 -0.7117,-0.45247 -0.7117,-1.00549 v -26.17808 c 0,-0.55302 0.32026,-1.00549 0.7117,-1.00549 h 84.692151 c 0.391427,0 0.71169,0.45247 0.71169,1.00549 v 26.17808 z"/><path id="path8638" d="m -52.430109,327.8444 c 0,0.55302 -0.320263,1.00549 -0.71169,1.00549 h -84.692151 c -0.39144,0 -0.7117,-0.45247 -0.7117,-1.00549 v -26.17808 c 0,-0.55302 0.32026,-1.00549 0.7117,-1.00549 h 84.692151 c 0.391427,0 0.71169,0.45247 0.71169,1.00549 v 26.17808 z" style="fill:url(#linearGradient8644);fill-opacity:1;stroke:#303539;stroke-width:.84593725"/><text style="font-size:16px;font-style:normal;font-variant:normal;font-weight:600;font-stretch:normal;text-align:center;line-height:125%;letter-spacing:0;word-spacing:0;text-anchor:middle;fill:#000;fill-opacity:1;stroke:none;font-family:FreeSans;-inkscape-font-specification:FreeSans Semi-Bold" id="text8640" x="-95.816" y="320.499" xml:space="preserve"><tspan id="tspan8642" x="-95.816" y="320.499">Buildslave</tspan></text></g><g id="g8646" transform="translate(334.53749,-136.4256)"><path style="opacity:.5;fill:#000;fill-opacity:1;stroke:none;filter:url(#filter8602)" id="path8648" d="m -50.430109,329.8444 c 0,0.55302 -0.320263,1.00549 -0.71169,1.00549 h -84.692151 c -0.39144,0 -0.7117,-0.45247 -0.7117,-1.00549 v -26.17808 c 0,-0.55302 0.32026,-1.00549 0.7117,-1.00549 h 84.692151 c 0.391427,0 0.71169,0.45247 0.71169,1.00549 v 26.17808 z"/><path id="path8650" d="m -52.430109,327.8444 c 0,0.55302 -0.320263,1.00549 -0.71169,1.00549 h -84.692151 c -0.39144,0 -0.7117,-0.45247 -0.7117,-1.00549 v -26.17808 c 0,-0.55302 0.32026,-1.00549 0.7117,-1.00549 h 84.692151 c 0.391427,0 0.71169,0.45247 0.71169,1.00549 v 26.17808 z" style="fill:url(#linearGradient8656);fill-opacity:1;stroke:#303539;stroke-width:.84593725"/><text style="font-size:16px;font-style:normal;font-variant:normal;font-weight:600;font-stretch:normal;text-align:center;line-height:125%;letter-spacing:0;word-spacing:0;text-anchor:middle;fill:#000;fill-opacity:1;stroke:none;font-family:FreeSans;-inkscape-font-specification:FreeSans Semi-Bold" id="text8652" x="-95.816" y="320.499" xml:space="preserve"><tspan id="tspan8654" x="-95.816" y="320.499">Buildslave</tspan></text></g><g id="g8742" transform="translate(-238.1413,-193.26643)"><ellipse style="opacity:.5;fill:#000;fill-opacity:1;stroke:none;filter:url(#filter8729)" id="ellipse8744" cx="478.7" cy="358.658" d="m 491.89001,358.65799 c 0,6.99579 -5.90536,12.667 -13.19,12.667 -7.28463,0 -13.19,-5.67121 -13.19,-12.667 0,-6.99579 5.90537,-12.667 13.19,-12.667 7.28464,0 13.19,5.67121 13.19,12.667 z" rx="13.19" ry="12.667" transform="translate(27.324265,-29.554779)"/><ellipse id="ellipse8746" cx="478.7" cy="358.658" d="m 491.89001,358.65799 c 0,6.99579 -5.90536,12.667 -13.19,12.667 -7.28463,0 -13.19,-5.67121 -13.19,-12.667 0,-6.99579 5.90537,-12.667 13.19,-12.667 7.28464,0 13.19,5.67121 13.19,12.667 z" rx="13.19" ry="12.667" transform="translate(25.324265,-31.554779)" style="fill:#fff;fill-opacity:1;stroke:#303539;stroke-width:.5"/><path style="fill:#d93d04" id="path8748" d="m 493.56026,321.83222 c 0.463,-0.116 0.998,-0.188 1.621,-0.188 0.884,0 1.637,0.188 2.158,0.681 0.42,0.391 0.637,0.971 0.637,1.665 0,0.999 -0.551,1.781 -1.506,2.157 v 0.044 c 1.129,0.304 1.811,1.216 1.811,2.491 0,0.811 -0.262,1.462 -0.695,1.939 -0.551,0.623 -1.463,0.884 -2.578,0.884 -0.709,0 -1.144,-0.044 -1.447,-0.102 v -9.571 z m 1.1,3.996 h 0.508 c 0.912,0 1.693,-0.695 1.693,-1.723 0,-0.898 -0.42,-1.594 -1.607,-1.594 -0.26,0 -0.463,0.029 -0.594,0.072 v 3.245 z m 0,4.735 c 0.131,0.028 0.318,0.058 0.565,0.058 1.144,0 1.896,-0.68 1.896,-1.939 0,-1.348 -0.927,-1.984 -1.97,-1.999 h -0.492 v 3.88 z"/><path style="fill:#d93d04" id="path8750" d="m 500.17626,324.12422 v 4.911 c 0,1.314 0.445,1.76 0.989,1.76 0.619,0 1.021,-0.479 1.021,-1.76 v -4.911 h 0.837 v 4.78 c 0,1.901 -0.782,2.629 -1.868,2.629 -1.098,0 -1.814,-0.717 -1.814,-2.531 v -4.878 h 0.835 z"/><path style="fill:#d93d04" id="path8752" d="m 505.14826,324.12422 v 7.323 h -0.836 v -7.323 h 0.836 z"/><path style="fill:#d93d04" id="path8754" d="m 506.47226,324.12422 h 0.836 v 6.616 h 2.054 v 0.707 h -2.89 v -7.323 z"/><path style="fill:#d93d04" id="path8756" d="m 510.21926,324.23222 c 0.314,-0.098 0.706,-0.141 1.119,-0.141 0.771,0 1.314,0.195 1.716,0.554 0.565,0.489 0.989,1.435 0.989,2.966 0,1.674 -0.413,2.586 -0.881,3.097 -0.478,0.532 -1.173,0.782 -2.021,0.782 -0.337,0 -0.685,-0.021 -0.923,-0.076 v -7.182 z m 0.825,6.541 c 0.12,0.021 0.239,0.021 0.315,0.021 0.924,0 1.814,-0.674 1.814,-3.162 0,-1.846 -0.565,-2.856 -1.738,-2.856 -0.131,0 -0.283,0.011 -0.392,0.043 v 5.954 z"/></g><g id="g8758" transform="translate(-243.61202,-233.38511)"><ellipse id="ellipse8760" cx="478.7" cy="358.658" d="m 491.89001,358.65799 c 0,6.99579 -5.90536,12.667 -13.19,12.667 -7.28463,0 -13.19,-5.67121 -13.19,-12.667 0,-6.99579 5.90537,-12.667 13.19,-12.667 7.28464,0 13.19,5.67121 13.19,12.667 z" rx="13.19" ry="12.667" transform="translate(27.324265,-29.554779)" style="opacity:.5;fill:#000;fill-opacity:1;stroke:none;filter:url(#filter8729)"/><ellipse style="fill:#fff;fill-opacity:1;stroke:#303539;stroke-width:.5" id="ellipse8762" cx="478.7" cy="358.658" d="m 491.89001,358.65799 c 0,6.99579 -5.90536,12.667 -13.19,12.667 -7.28463,0 -13.19,-5.67121 -13.19,-12.667 0,-6.99579 5.90537,-12.667 13.19,-12.667 7.28464,0 13.19,5.67121 13.19,12.667 z" rx="13.19" ry="12.667" transform="translate(25.324265,-31.554779)"/><path id="path8764" d="m 493.56026,321.83222 c 0.463,-0.116 0.998,-0.188 1.621,-0.188 0.884,0 1.637,0.188 2.158,0.681 0.42,0.391 0.637,0.971 0.637,1.665 0,0.999 -0.551,1.781 -1.506,2.157 v 0.044 c 1.129,0.304 1.811,1.216 1.811,2.491 0,0.811 -0.262,1.462 -0.695,1.939 -0.551,0.623 -1.463,0.884 -2.578,0.884 -0.709,0 -1.144,-0.044 -1.447,-0.102 v -9.571 z m 1.1,3.996 h 0.508 c 0.912,0 1.693,-0.695 1.693,-1.723 0,-0.898 -0.42,-1.594 -1.607,-1.594 -0.26,0 -0.463,0.029 -0.594,0.072 v 3.245 z m 0,4.735 c 0.131,0.028 0.318,0.058 0.565,0.058 1.144,0 1.896,-0.68 1.896,-1.939 0,-1.348 -0.927,-1.984 -1.97,-1.999 h -0.492 v 3.88 z" style="fill:#d93d04"/><path id="path8766" d="m 500.17626,324.12422 v 4.911 c 0,1.314 0.445,1.76 0.989,1.76 0.619,0 1.021,-0.479 1.021,-1.76 v -4.911 h 0.837 v 4.78 c 0,1.901 -0.782,2.629 -1.868,2.629 -1.098,0 -1.814,-0.717 -1.814,-2.531 v -4.878 h 0.835 z" style="fill:#d93d04"/><path id="path8768" d="m 505.14826,324.12422 v 7.323 h -0.836 v -7.323 h 0.836 z" style="fill:#d93d04"/><path id="path8770" d="m 506.47226,324.12422 h 0.836 v 6.616 h 2.054 v 0.707 h -2.89 v -7.323 z" style="fill:#d93d04"/><path id="path8772" d="m 510.21926,324.23222 c 0.314,-0.098 0.706,-0.141 1.119,-0.141 0.771,0 1.314,0.195 1.716,0.554 0.565,0.489 0.989,1.435 0.989,2.966 0,1.674 -0.413,2.586 -0.881,3.097 -0.478,0.532 -1.173,0.782 -2.021,0.782 -0.337,0 -0.685,-0.021 -0.923,-0.076 v -7.182 z m 0.825,6.541 c 0.12,0.021 0.239,0.021 0.315,0.021 0.924,0 1.814,-0.674 1.814,-3.162 0,-1.846 -0.565,-2.856 -1.738,-2.856 -0.131,0 -0.283,0.011 -0.392,0.043 v 5.954 z" style="fill:#d93d04"/></g><g id="g8774" transform="translate(-298.31932,-209.07076)"><ellipse id="ellipse8776" cx="478.7" cy="358.658" d="m 491.89001,358.65799 c 0,6.99579 -5.90536,12.667 -13.19,12.667 -7.28463,0 -13.19,-5.67121 -13.19,-12.667 0,-6.99579 5.90537,-12.667 13.19,-12.667 7.28464,0 13.19,5.67121 13.19,12.667 z" rx="13.19" ry="12.667" transform="translate(27.324265,-29.554779)" style="opacity:.5;fill:#000;fill-opacity:1;stroke:none;filter:url(#filter8729)"/><ellipse style="fill:#fff;fill-opacity:1;stroke:#303539;stroke-width:.5" id="ellipse8778" cx="478.7" cy="358.658" d="m 491.89001,358.65799 c 0,6.99579 -5.90536,12.667 -13.19,12.667 -7.28463,0 -13.19,-5.67121 -13.19,-12.667 0,-6.99579 5.90537,-12.667 13.19,-12.667 7.28464,0 13.19,5.67121 13.19,12.667 z" rx="13.19" ry="12.667" transform="translate(25.324265,-31.554779)"/><path id="path8780" d="m 493.56026,321.83222 c 0.463,-0.116 0.998,-0.188 1.621,-0.188 0.884,0 1.637,0.188 2.158,0.681 0.42,0.391 0.637,0.971 0.637,1.665 0,0.999 -0.551,1.781 -1.506,2.157 v 0.044 c 1.129,0.304 1.811,1.216 1.811,2.491 0,0.811 -0.262,1.462 -0.695,1.939 -0.551,0.623 -1.463,0.884 -2.578,0.884 -0.709,0 -1.144,-0.044 -1.447,-0.102 v -9.571 z m 1.1,3.996 h 0.508 c 0.912,0 1.693,-0.695 1.693,-1.723 0,-0.898 -0.42,-1.594 -1.607,-1.594 -0.26,0 -0.463,0.029 -0.594,0.072 v 3.245 z m 0,4.735 c 0.131,0.028 0.318,0.058 0.565,0.058 1.144,0 1.896,-0.68 1.896,-1.939 0,-1.348 -0.927,-1.984 -1.97,-1.999 h -0.492 v 3.88 z" style="fill:#d93d04"/><path id="path8782" d="m 500.17626,324.12422 v 4.911 c 0,1.314 0.445,1.76 0.989,1.76 0.619,0 1.021,-0.479 1.021,-1.76 v -4.911 h 0.837 v 4.78 c 0,1.901 -0.782,2.629 -1.868,2.629 -1.098,0 -1.814,-0.717 -1.814,-2.531 v -4.878 h 0.835 z" style="fill:#d93d04"/><path id="path8784" d="m 505.14826,324.12422 v 7.323 h -0.836 v -7.323 h 0.836 z" style="fill:#d93d04"/><path id="path8786" d="m 506.47226,324.12422 h 0.836 v 6.616 h 2.054 v 0.707 h -2.89 v -7.323 z" style="fill:#d93d04"/><path id="path8788" d="m 510.21926,324.23222 c 0.314,-0.098 0.706,-0.141 1.119,-0.141 0.771,0 1.314,0.195 1.716,0.554 0.565,0.489 0.989,1.435 0.989,2.966 0,1.674 -0.413,2.586 -0.881,3.097 -0.478,0.532 -1.173,0.782 -2.021,0.782 -0.337,0 -0.685,-0.021 -0.923,-0.076 v -7.182 z m 0.825,6.541 c 0.12,0.021 0.239,0.021 0.315,0.021 0.924,0 1.814,-0.674 1.814,-3.162 0,-1.846 -0.565,-2.856 -1.738,-2.856 -0.131,0 -0.283,0.011 -0.392,0.043 v 5.954 z" style="fill:#d93d04"/></g><g id="g8790" transform="translate(-331.75155,-233.38511)"><ellipse style="opacity:.5;fill:#000;fill-opacity:1;stroke:none;filter:url(#filter8729)" id="ellipse8792" cx="478.7" cy="358.658" d="m 491.89001,358.65799 c 0,6.99579 -5.90536,12.667 -13.19,12.667 -7.28463,0 -13.19,-5.67121 -13.19,-12.667 0,-6.99579 5.90537,-12.667 13.19,-12.667 7.28464,0 13.19,5.67121 13.19,12.667 z" rx="13.19" ry="12.667" transform="translate(27.324265,-29.554779)"/><ellipse id="ellipse8794" cx="478.7" cy="358.658" d="m 491.89001,358.65799 c 0,6.99579 -5.90536,12.667 -13.19,12.667 -7.28463,0 -13.19,-5.67121 -13.19,-12.667 0,-6.99579 5.90537,-12.667 13.19,-12.667 7.28464,0 13.19,5.67121 13.19,12.667 z" rx="13.19" ry="12.667" transform="translate(25.324265,-31.554779)" style="fill:#fff;fill-opacity:1;stroke:#303539;stroke-width:.5"/><path style="fill:#d93d04" id="path8796" d="m 493.56026,321.83222 c 0.463,-0.116 0.998,-0.188 1.621,-0.188 0.884,0 1.637,0.188 2.158,0.681 0.42,0.391 0.637,0.971 0.637,1.665 0,0.999 -0.551,1.781 -1.506,2.157 v 0.044 c 1.129,0.304 1.811,1.216 1.811,2.491 0,0.811 -0.262,1.462 -0.695,1.939 -0.551,0.623 -1.463,0.884 -2.578,0.884 -0.709,0 -1.144,-0.044 -1.447,-0.102 v -9.571 z m 1.1,3.996 h 0.508 c 0.912,0 1.693,-0.695 1.693,-1.723 0,-0.898 -0.42,-1.594 -1.607,-1.594 -0.26,0 -0.463,0.029 -0.594,0.072 v 3.245 z m 0,4.735 c 0.131,0.028 0.318,0.058 0.565,0.058 1.144,0 1.896,-0.68 1.896,-1.939 0,-1.348 -0.927,-1.984 -1.97,-1.999 h -0.492 v 3.88 z"/><path style="fill:#d93d04" id="path8798" d="m 500.17626,324.12422 v 4.911 c 0,1.314 0.445,1.76 0.989,1.76 0.619,0 1.021,-0.479 1.021,-1.76 v -4.911 h 0.837 v 4.78 c 0,1.901 -0.782,2.629 -1.868,2.629 -1.098,0 -1.814,-0.717 -1.814,-2.531 v -4.878 h 0.835 z"/><path style="fill:#d93d04" id="path8800" d="m 505.14826,324.12422 v 7.323 h -0.836 v -7.323 h 0.836 z"/><path style="fill:#d93d04" id="path8802" d="m 506.47226,324.12422 h 0.836 v 6.616 h 2.054 v 0.707 h -2.89 v -7.323 z"/><path style="fill:#d93d04" id="path8804" d="m 510.21926,324.23222 c 0.314,-0.098 0.706,-0.141 1.119,-0.141 0.771,0 1.314,0.195 1.716,0.554 0.565,0.489 0.989,1.435 0.989,2.966 0,1.674 -0.413,2.586 -0.881,3.097 -0.478,0.532 -1.173,0.782 -2.021,0.782 -0.337,0 -0.685,-0.021 -0.923,-0.076 v -7.182 z m 0.825,6.541 c 0.12,0.021 0.239,0.021 0.315,0.021 0.924,0 1.814,-0.674 1.814,-3.162 0,-1.846 -0.565,-2.856 -1.738,-2.856 -0.131,0 -0.283,0.011 -0.392,0.043 v 5.954 z"/></g><g id="g8806" transform="translate(-393.75315,-195.09)"><ellipse id="ellipse8808" cx="478.7" cy="358.658" d="m 491.89001,358.65799 c 0,6.99579 -5.90536,12.667 -13.19,12.667 -7.28463,0 -13.19,-5.67121 -13.19,-12.667 0,-6.99579 5.90537,-12.667 13.19,-12.667 7.28464,0 13.19,5.67121 13.19,12.667 z" rx="13.19" ry="12.667" transform="translate(27.324265,-29.554779)" style="opacity:.5;fill:#000;fill-opacity:1;stroke:none;filter:url(#filter8729)"/><ellipse style="fill:#fff;fill-opacity:1;stroke:#303539;stroke-width:.5" id="ellipse8810" cx="478.7" cy="358.658" d="m 491.89001,358.65799 c 0,6.99579 -5.90536,12.667 -13.19,12.667 -7.28463,0 -13.19,-5.67121 -13.19,-12.667 0,-6.99579 5.90537,-12.667 13.19,-12.667 7.28464,0 13.19,5.67121 13.19,12.667 z" rx="13.19" ry="12.667" transform="translate(25.324265,-31.554779)"/><path id="path8812" d="m 493.56026,321.83222 c 0.463,-0.116 0.998,-0.188 1.621,-0.188 0.884,0 1.637,0.188 2.158,0.681 0.42,0.391 0.637,0.971 0.637,1.665 0,0.999 -0.551,1.781 -1.506,2.157 v 0.044 c 1.129,0.304 1.811,1.216 1.811,2.491 0,0.811 -0.262,1.462 -0.695,1.939 -0.551,0.623 -1.463,0.884 -2.578,0.884 -0.709,0 -1.144,-0.044 -1.447,-0.102 v -9.571 z m 1.1,3.996 h 0.508 c 0.912,0 1.693,-0.695 1.693,-1.723 0,-0.898 -0.42,-1.594 -1.607,-1.594 -0.26,0 -0.463,0.029 -0.594,0.072 v 3.245 z m 0,4.735 c 0.131,0.028 0.318,0.058 0.565,0.058 1.144,0 1.896,-0.68 1.896,-1.939 0,-1.348 -0.927,-1.984 -1.97,-1.999 h -0.492 v 3.88 z" style="fill:#d93d04"/><path id="path8814" d="m 500.17626,324.12422 v 4.911 c 0,1.314 0.445,1.76 0.989,1.76 0.619,0 1.021,-0.479 1.021,-1.76 v -4.911 h 0.837 v 4.78 c 0,1.901 -0.782,2.629 -1.868,2.629 -1.098,0 -1.814,-0.717 -1.814,-2.531 v -4.878 h 0.835 z" style="fill:#d93d04"/><path id="path8816" d="m 505.14826,324.12422 v 7.323 h -0.836 v -7.323 h 0.836 z" style="fill:#d93d04"/><path id="path8818" d="m 506.47226,324.12422 h 0.836 v 6.616 h 2.054 v 0.707 h -2.89 v -7.323 z" style="fill:#d93d04"/><path id="path8820" d="m 510.21926,324.23222 c 0.314,-0.098 0.706,-0.141 1.119,-0.141 0.771,0 1.314,0.195 1.716,0.554 0.565,0.489 0.989,1.435 0.989,2.966 0,1.674 -0.413,2.586 -0.881,3.097 -0.478,0.532 -1.173,0.782 -2.021,0.782 -0.337,0 -0.685,-0.021 -0.923,-0.076 v -7.182 z m 0.825,6.541 c 0.12,0.021 0.239,0.021 0.315,0.021 0.924,0 1.814,-0.674 1.814,-3.162 0,-1.846 -0.565,-2.856 -1.738,-2.856 -0.131,0 -0.283,0.011 -0.392,0.043 v 5.954 z" style="fill:#d93d04"/></g><g id="g8822" transform="translate(-462.74513,-232.77725)"><ellipse style="opacity:.5;fill:#000;fill-opacity:1;stroke:none;filter:url(#filter8729)" id="ellipse8824" cx="478.7" cy="358.658" d="m 491.89001,358.65799 c 0,6.99579 -5.90536,12.667 -13.19,12.667 -7.28463,0 -13.19,-5.67121 -13.19,-12.667 0,-6.99579 5.90537,-12.667 13.19,-12.667 7.28464,0 13.19,5.67121 13.19,12.667 z" rx="13.19" ry="12.667" transform="translate(27.324265,-29.554779)"/><ellipse id="ellipse8826" cx="478.7" cy="358.658" d="m 491.89001,358.65799 c 0,6.99579 -5.90536,12.667 -13.19,12.667 -7.28463,0 -13.19,-5.67121 -13.19,-12.667 0,-6.99579 5.90537,-12.667 13.19,-12.667 7.28464,0 13.19,5.67121 13.19,12.667 z" rx="13.19" ry="12.667" transform="translate(25.324265,-31.554779)" style="fill:#fff;fill-opacity:1;stroke:#303539;stroke-width:.5"/><path style="fill:#d93d04" id="path8828" d="m 493.56026,321.83222 c 0.463,-0.116 0.998,-0.188 1.621,-0.188 0.884,0 1.637,0.188 2.158,0.681 0.42,0.391 0.637,0.971 0.637,1.665 0,0.999 -0.551,1.781 -1.506,2.157 v 0.044 c 1.129,0.304 1.811,1.216 1.811,2.491 0,0.811 -0.262,1.462 -0.695,1.939 -0.551,0.623 -1.463,0.884 -2.578,0.884 -0.709,0 -1.144,-0.044 -1.447,-0.102 v -9.571 z m 1.1,3.996 h 0.508 c 0.912,0 1.693,-0.695 1.693,-1.723 0,-0.898 -0.42,-1.594 -1.607,-1.594 -0.26,0 -0.463,0.029 -0.594,0.072 v 3.245 z m 0,4.735 c 0.131,0.028 0.318,0.058 0.565,0.058 1.144,0 1.896,-0.68 1.896,-1.939 0,-1.348 -0.927,-1.984 -1.97,-1.999 h -0.492 v 3.88 z"/><path style="fill:#d93d04" id="path8830" d="m 500.17626,324.12422 v 4.911 c 0,1.314 0.445,1.76 0.989,1.76 0.619,0 1.021,-0.479 1.021,-1.76 v -4.911 h 0.837 v 4.78 c 0,1.901 -0.782,2.629 -1.868,2.629 -1.098,0 -1.814,-0.717 -1.814,-2.531 v -4.878 h 0.835 z"/><path style="fill:#d93d04" id="path8832" d="m 505.14826,324.12422 v 7.323 h -0.836 v -7.323 h 0.836 z"/><path style="fill:#d93d04" id="path8834" d="m 506.47226,324.12422 h 0.836 v 6.616 h 2.054 v 0.707 h -2.89 v -7.323 z"/><path style="fill:#d93d04" id="path8836" d="m 510.21926,324.23222 c 0.314,-0.098 0.706,-0.141 1.119,-0.141 0.771,0 1.314,0.195 1.716,0.554 0.565,0.489 0.989,1.435 0.989,2.966 0,1.674 -0.413,2.586 -0.881,3.097 -0.478,0.532 -1.173,0.782 -2.021,0.782 -0.337,0 -0.685,-0.021 -0.923,-0.076 v -7.182 z m 0.825,6.541 c 0.12,0.021 0.239,0.021 0.315,0.021 0.924,0 1.814,-0.674 1.814,-3.162 0,-1.846 -0.565,-2.856 -1.738,-2.856 -0.131,0 -0.283,0.011 -0.392,0.043 v 5.954 z"/></g></svg>