<svg xmlns="http://www.w3.org/2000/svg" xmlns:svg="http://www.w3.org/2000/svg" id="svg6022" width="520" height="300" version="1.1"><defs id="defs6024"><marker id="Arrow1Send" orient="auto" refX="0" refY="0" style="overflow:visible"><path id="path6911" d="M 0,0 5,-5 -12.5,0 5,5 0,0 z" transform="matrix(-0.2,0,0,-0.2,-1.2,0)" style="fill-rule:evenodd;stroke:#000;stroke-width:1pt"/></marker><marker id="Arrow1Lend" orient="auto" refX="0" refY="0" style="overflow:visible"><path id="path6899" d="M 0,0 5,-5 -12.5,0 5,5 0,0 z" transform="matrix(-0.8,0,0,-0.8,-10,0)" style="fill-rule:evenodd;stroke:#000;stroke-width:1pt"/></marker><marker id="EmptyDiamondL" orient="auto" refX="0" refY="0" style="overflow:visible"><path id="path7002" d="M 0,-7.0710768 -7.0710894,0 0,7.0710589 7.0710462,0 0,-7.0710768 z" transform="scale(0.8,0.8)" style="fill:#fff;fill-rule:evenodd;stroke:#000;stroke-width:1pt"/></marker><filter id="filter5943" color-interpolation-filters="sRGB"><feGaussianBlur id="feGaussianBlur5945" stdDeviation="7.68"/></filter><filter id="filter5951" color-interpolation-filters="sRGB"><feGaussianBlur id="feGaussianBlur5953" stdDeviation=".738"/></filter><filter id="filter5955" color-interpolation-filters="sRGB"><feGaussianBlur id="feGaussianBlur5957" stdDeviation=".738"/></filter></defs><metadata id="metadata6027"/><g id="layer1" transform="translate(-78.586866,119.12544)"><path id="path9799" d="m 383.58687,63.87456 168.5,56" style="fill:none;stroke:#000;stroke-width:1;stroke-linecap:butt;stroke-linejoin:miter;stroke-miterlimit:4;stroke-opacity:1;stroke-dasharray:2,1;stroke-dashoffset:0"/><path style="fill:none;stroke:#000;stroke-width:1;stroke-linecap:butt;stroke-linejoin:miter;stroke-miterlimit:4;stroke-opacity:1;stroke-dasharray:2,1;stroke-dashoffset:0" id="path9797" d="m 307.08687,58.87456 114.5,59"/><path id="path9795" d="m 231.58687,59.37456 52.5,56.5" style="fill:none;stroke:#000;stroke-width:1;stroke-linecap:butt;stroke-linejoin:miter;stroke-miterlimit:4;stroke-opacity:1;stroke-dasharray:2,1;stroke-dashoffset:0"/><path style="fill:none;stroke:#000;stroke-width:1;stroke-linecap:butt;stroke-linejoin:miter;stroke-opacity:1;stroke-miterlimit:4;stroke-dasharray:2,1;stroke-dashoffset:0" id="path9267" d="M 80.5,181.5 133,238" transform="translate(78.586866,-119.12544)"/><g id="g5967" transform="translate(129.26704,277.45522)"><g id="g5935" transform="matrix(0.11695906,0,0,0.11695906,72.882747,-118.69224)" style="opacity:.5;fill:#000;fill-opacity:1;stroke:none;filter:url(#filter5943)"><path id="path5937" d="m 80.27119,-392.67797 c -141.386,0 -256,35.816 -256,80 v 64 c 0,44.183 114.611,80 256,80 141.385,0 256,-35.817 256,-80 v -64 c 0,-44.184 -114.615,-80 -256,-80 z" style="fill:#000;fill-opacity:1;stroke:none"/><path id="path5939" d="m 79.46419,-136.67797 c -114.627,0 -211.253,-23.543 -243.873,-56 -7.615,7.577 -11.32,15.639 -11.32,24 v 64 c 0,44.184 114.611,80 256,80 141.385,0 256,-35.816 256,-80 v -64 c 0,-8.361 -4.516,-16.423 -12.131,-24 -32.619,32.457 -130.049,56 -244.676,56 z" style="fill:#000;fill-opacity:1;stroke:none"/><path id="path5941" d="m 79.46419,7.32203 c -114.627,0 -211.253,-23.544 -243.873,-56 -7.615,7.576 -11.32,15.639 -11.32,24 v 64 c 0,44.183 114.611,80 256,80 141.385,0 256,-35.817 256,-80 v -64 c 0,-8.361 -4.516,-16.424 -12.131,-24 -32.619,32.456 -130.049,56 -244.676,56 z" style="fill:#000;fill-opacity:1;stroke:none"/></g><g style="fill:#d9d5d2;fill-opacity:1;stroke:#303539;stroke-width:8.55000019;stroke-miterlimit:4;stroke-opacity:1;stroke-dasharray:none" id="g5019" transform="matrix(0.11695906,0,0,0.11695906,70.882747,-120.69224)"><path style="fill:#d9d5d2;fill-opacity:1;stroke:#303539;stroke-width:8.55000019;stroke-miterlimit:4;stroke-opacity:1;stroke-dasharray:none" id="path3960" d="m 80.27119,-392.67797 c -141.386,0 -256,35.816 -256,80 v 64 c 0,44.183 114.611,80 256,80 141.385,0 256,-35.817 256,-80 v -64 c 0,-44.184 -114.615,-80 -256,-80 z"/><path style="fill:#d9d5d2;fill-opacity:1;stroke:#303539;stroke-width:8.55000019;stroke-miterlimit:4;stroke-opacity:1;stroke-dasharray:none" id="path3962" d="m 79.46419,-136.67797 c -114.627,0 -211.253,-23.543 -243.873,-56 -7.615,7.577 -11.32,15.639 -11.32,24 v 64 c 0,44.184 114.611,80 256,80 141.385,0 256,-35.816 256,-80 v -64 c 0,-8.361 -4.516,-16.423 -12.131,-24 -32.619,32.457 -130.049,56 -244.676,56 z"/><path style="fill:#d9d5d2;fill-opacity:1;stroke:#303539;stroke-width:8.55000019;stroke-miterlimit:4;stroke-opacity:1;stroke-dasharray:none" id="path3964" d="m 79.46419,7.32203 c -114.627,0 -211.253,-23.544 -243.873,-56 -7.615,7.576 -11.32,15.639 -11.32,24 v 64 c 0,44.183 114.611,80 256,80 141.385,0 256,-35.817 256,-80 v -64 c 0,-8.361 -4.516,-16.424 -12.131,-24 -32.619,32.456 -130.049,56 -244.676,56 z"/></g><rect style="opacity:.51000001;fill:#000;fill-opacity:1;stroke:none;filter:url(#filter5951)" id="rect5947" width="22.052" height="23.072" x="57.621" y="-159.313"/><rect id="rect5931" width="22.052" height="23.072" x="55.621" y="-161.313" style="fill:#fff;fill-opacity:1;stroke:#303539;stroke-opacity:1"/><rect id="rect5949" width="22.052" height="23.072" x="84.707" y="-133.185" style="opacity:.51000001;fill:#000;fill-opacity:1;stroke:none;filter:url(#filter5955)"/><rect style="fill:#fff;fill-opacity:1;stroke:#303539;stroke-opacity:1" id="rect5933" width="22.052" height="23.072" x="82.707" y="-135.185"/><text id="text5959" x="66.865" y="-145.955" xml:space="preserve" style="font-size:14px;font-style:normal;font-weight:400;text-align:center;line-height:125%;letter-spacing:0;word-spacing:0;text-anchor:middle;fill:#000;fill-opacity:1;stroke:none;font-family:Sans"><tspan id="tspan5961" x="66.865" y="-145.955">a</tspan></text><text id="text5963" x="93.613" y="-118.546" xml:space="preserve" style="font-size:14px;font-style:normal;font-weight:400;text-align:center;line-height:125%;letter-spacing:0;word-spacing:0;text-anchor:middle;fill:#000;fill-opacity:1;stroke:none;font-family:Sans"><tspan id="tspan5965" x="93.613" y="-118.546">1</tspan></text></g><g id="g6100" transform="translate(205.2211,277.45522)"><g style="opacity:.5;fill:#000;fill-opacity:1;stroke:none;filter:url(#filter5943)" id="g6102" transform="matrix(0.11695906,0,0,0.11695906,72.882747,-118.69224)"><path style="fill:#000;fill-opacity:1;stroke:none" id="path6104" d="m 80.27119,-392.67797 c -141.386,0 -256,35.816 -256,80 v 64 c 0,44.183 114.611,80 256,80 141.385,0 256,-35.817 256,-80 v -64 c 0,-44.184 -114.615,-80 -256,-80 z"/><path style="fill:#000;fill-opacity:1;stroke:none" id="path6106" d="m 79.46419,-136.67797 c -114.627,0 -211.253,-23.543 -243.873,-56 -7.615,7.577 -11.32,15.639 -11.32,24 v 64 c 0,44.184 114.611,80 256,80 141.385,0 256,-35.816 256,-80 v -64 c 0,-8.361 -4.516,-16.423 -12.131,-24 -32.619,32.457 -130.049,56 -244.676,56 z"/><path style="fill:#000;fill-opacity:1;stroke:none" id="path6108" d="m 79.46419,7.32203 c -114.627,0 -211.253,-23.544 -243.873,-56 -7.615,7.576 -11.32,15.639 -11.32,24 v 64 c 0,44.183 114.611,80 256,80 141.385,0 256,-35.817 256,-80 v -64 c 0,-8.361 -4.516,-16.424 -12.131,-24 -32.619,32.456 -130.049,56 -244.676,56 z"/></g><g id="g6110" transform="matrix(0.11695906,0,0,0.11695906,70.882747,-120.69224)" style="fill:#d9d5d2;fill-opacity:1;stroke:#303539;stroke-width:8.55000019;stroke-miterlimit:4;stroke-opacity:1;stroke-dasharray:none"><path id="path6112" d="m 80.27119,-392.67797 c -141.386,0 -256,35.816 -256,80 v 64 c 0,44.183 114.611,80 256,80 141.385,0 256,-35.817 256,-80 v -64 c 0,-44.184 -114.615,-80 -256,-80 z" style="fill:#d9d5d2;fill-opacity:1;stroke:#303539;stroke-width:8.55000019;stroke-miterlimit:4;stroke-opacity:1;stroke-dasharray:none"/><path id="path6114" d="m 79.46419,-136.67797 c -114.627,0 -211.253,-23.543 -243.873,-56 -7.615,7.577 -11.32,15.639 -11.32,24 v 64 c 0,44.184 114.611,80 256,80 141.385,0 256,-35.816 256,-80 v -64 c 0,-8.361 -4.516,-16.423 -12.131,-24 -32.619,32.457 -130.049,56 -244.676,56 z" style="fill:#d9d5d2;fill-opacity:1;stroke:#303539;stroke-width:8.55000019;stroke-miterlimit:4;stroke-opacity:1;stroke-dasharray:none"/><path id="path6116" d="m 79.46419,7.32203 c -114.627,0 -211.253,-23.544 -243.873,-56 -7.615,7.576 -11.32,15.639 -11.32,24 v 64 c 0,44.183 114.611,80 256,80 141.385,0 256,-35.817 256,-80 v -64 c 0,-8.361 -4.516,-16.424 -12.131,-24 -32.619,32.456 -130.049,56 -244.676,56 z" style="fill:#d9d5d2;fill-opacity:1;stroke:#303539;stroke-width:8.55000019;stroke-miterlimit:4;stroke-opacity:1;stroke-dasharray:none"/></g><rect id="rect6118" width="22.052" height="23.072" x="57.621" y="-159.313" style="opacity:.51000001;fill:#000;fill-opacity:1;stroke:none;filter:url(#filter5951)"/><rect style="fill:#fff;fill-opacity:1;stroke:#303539;stroke-opacity:1" id="rect6120" width="22.052" height="23.072" x="55.621" y="-161.313"/><rect style="opacity:.51000001;fill:#000;fill-opacity:1;stroke:none;filter:url(#filter5955)" id="rect6122" width="22.052" height="23.072" x="84.707" y="-133.185"/><rect id="rect6124" width="22.052" height="23.072" x="82.707" y="-135.185" style="fill:#fff;fill-opacity:1;stroke:#303539;stroke-opacity:1"/><text style="font-size:14px;font-style:normal;font-weight:400;text-align:center;line-height:125%;letter-spacing:0;word-spacing:0;text-anchor:middle;fill:#000;fill-opacity:1;stroke:none;font-family:Sans" id="text6126" x="66.865" y="-145.955" xml:space="preserve"><tspan id="tspan6128" x="66.865" y="-145.955">b</tspan></text><text style="font-size:14px;font-style:normal;font-weight:400;text-align:center;line-height:125%;letter-spacing:0;word-spacing:0;text-anchor:middle;fill:#000;fill-opacity:1;stroke:none;font-family:Sans" id="text6130" x="93.613" y="-118.546" xml:space="preserve"><tspan id="tspan6132" x="93.613" y="-118.546">1</tspan></text></g><g id="g6134" transform="translate(342.07529,277.45522)"><g id="g6136" transform="matrix(0.11695906,0,0,0.11695906,72.882747,-118.69224)" style="opacity:.5;fill:#000;fill-opacity:1;stroke:none;filter:url(#filter5943)"><path id="path6138" d="m 80.27119,-392.67797 c -141.386,0 -256,35.816 -256,80 v 64 c 0,44.183 114.611,80 256,80 141.385,0 256,-35.817 256,-80 v -64 c 0,-44.184 -114.615,-80 -256,-80 z" style="fill:#000;fill-opacity:1;stroke:none"/><path id="path6140" d="m 79.46419,-136.67797 c -114.627,0 -211.253,-23.543 -243.873,-56 -7.615,7.577 -11.32,15.639 -11.32,24 v 64 c 0,44.184 114.611,80 256,80 141.385,0 256,-35.816 256,-80 v -64 c 0,-8.361 -4.516,-16.423 -12.131,-24 -32.619,32.457 -130.049,56 -244.676,56 z" style="fill:#000;fill-opacity:1;stroke:none"/><path id="path6142" d="m 79.46419,7.32203 c -114.627,0 -211.253,-23.544 -243.873,-56 -7.615,7.576 -11.32,15.639 -11.32,24 v 64 c 0,44.183 114.611,80 256,80 141.385,0 256,-35.817 256,-80 v -64 c 0,-8.361 -4.516,-16.424 -12.131,-24 -32.619,32.456 -130.049,56 -244.676,56 z" style="fill:#000;fill-opacity:1;stroke:none"/></g><g style="fill:#d9d5d2;fill-opacity:1;stroke:#303539;stroke-width:8.55000019;stroke-miterlimit:4;stroke-opacity:1;stroke-dasharray:none" id="g6144" transform="matrix(0.11695906,0,0,0.11695906,70.882747,-120.69224)"><path style="fill:#d9d5d2;fill-opacity:1;stroke:#303539;stroke-width:8.55000019;stroke-miterlimit:4;stroke-opacity:1;stroke-dasharray:none" id="path6146" d="m 80.27119,-392.67797 c -141.386,0 -256,35.816 -256,80 v 64 c 0,44.183 114.611,80 256,80 141.385,0 256,-35.817 256,-80 v -64 c 0,-44.184 -114.615,-80 -256,-80 z"/><path style="fill:#d9d5d2;fill-opacity:1;stroke:#303539;stroke-width:8.55000019;stroke-miterlimit:4;stroke-opacity:1;stroke-dasharray:none" id="path6148" d="m 79.46419,-136.67797 c -114.627,0 -211.253,-23.543 -243.873,-56 -7.615,7.577 -11.32,15.639 -11.32,24 v 64 c 0,44.184 114.611,80 256,80 141.385,0 256,-35.816 256,-80 v -64 c 0,-8.361 -4.516,-16.423 -12.131,-24 -32.619,32.457 -130.049,56 -244.676,56 z"/><path style="fill:#d9d5d2;fill-opacity:1;stroke:#303539;stroke-width:8.55000019;stroke-miterlimit:4;stroke-opacity:1;stroke-dasharray:none" id="path6150" d="m 79.46419,7.32203 c -114.627,0 -211.253,-23.544 -243.873,-56 -7.615,7.576 -11.32,15.639 -11.32,24 v 64 c 0,44.183 114.611,80 256,80 141.385,0 256,-35.817 256,-80 v -64 c 0,-8.361 -4.516,-16.424 -12.131,-24 -32.619,32.456 -130.049,56 -244.676,56 z"/></g><rect style="opacity:.51000001;fill:#000;fill-opacity:1;stroke:none;filter:url(#filter5951)" id="rect6152" width="22.052" height="23.072" x="57.621" y="-159.313"/><rect id="rect6154" width="22.052" height="23.072" x="55.621" y="-161.313" style="fill:#fff;fill-opacity:1;stroke:#303539;stroke-opacity:1"/><rect id="rect6156" width="22.052" height="23.072" x="84.707" y="-133.185" style="opacity:.51000001;fill:#000;fill-opacity:1;stroke:none;filter:url(#filter5955)"/><rect style="fill:#fff;fill-opacity:1;stroke:#303539;stroke-opacity:1" id="rect6158" width="22.052" height="23.072" x="82.707" y="-135.185"/><text id="text6160" x="66.865" y="-145.955" xml:space="preserve" style="font-size:14px;font-style:normal;font-weight:400;text-align:center;line-height:125%;letter-spacing:0;word-spacing:0;text-anchor:middle;fill:#000;fill-opacity:1;stroke:none;font-family:Sans"><tspan id="tspan6162" x="66.865" y="-145.955">b</tspan></text><text id="text6164" x="93.613" y="-118.546" xml:space="preserve" style="font-size:14px;font-style:normal;font-weight:400;text-align:center;line-height:125%;letter-spacing:0;word-spacing:0;text-anchor:middle;fill:#000;fill-opacity:1;stroke:none;font-family:Sans"><tspan id="tspan6166" x="93.613" y="-118.546">2</tspan></text></g><g id="g6168" transform="translate(469.10685,277.45522)"><g style="opacity:.5;fill:#000;fill-opacity:1;stroke:none;filter:url(#filter5943)" id="g6170" transform="matrix(0.11695906,0,0,0.11695906,72.882747,-118.69224)"><path style="fill:#000;fill-opacity:1;stroke:none" id="path6172" d="m 80.27119,-392.67797 c -141.386,0 -256,35.816 -256,80 v 64 c 0,44.183 114.611,80 256,80 141.385,0 256,-35.817 256,-80 v -64 c 0,-44.184 -114.615,-80 -256,-80 z"/><path style="fill:#000;fill-opacity:1;stroke:none" id="path6174" d="m 79.46419,-136.67797 c -114.627,0 -211.253,-23.543 -243.873,-56 -7.615,7.577 -11.32,15.639 -11.32,24 v 64 c 0,44.184 114.611,80 256,80 141.385,0 256,-35.816 256,-80 v -64 c 0,-8.361 -4.516,-16.423 -12.131,-24 -32.619,32.457 -130.049,56 -244.676,56 z"/><path style="fill:#000;fill-opacity:1;stroke:none" id="path6176" d="m 79.46419,7.32203 c -114.627,0 -211.253,-23.544 -243.873,-56 -7.615,7.576 -11.32,15.639 -11.32,24 v 64 c 0,44.183 114.611,80 256,80 141.385,0 256,-35.817 256,-80 v -64 c 0,-8.361 -4.516,-16.424 -12.131,-24 -32.619,32.456 -130.049,56 -244.676,56 z"/></g><g id="g6178" transform="matrix(0.11695906,0,0,0.11695906,70.882747,-120.69224)" style="fill:#d9d5d2;fill-opacity:1;stroke:#303539;stroke-width:8.55000019;stroke-miterlimit:4;stroke-opacity:1;stroke-dasharray:none"><path id="path6180" d="m 80.27119,-392.67797 c -141.386,0 -256,35.816 -256,80 v 64 c 0,44.183 114.611,80 256,80 141.385,0 256,-35.817 256,-80 v -64 c 0,-44.184 -114.615,-80 -256,-80 z" style="fill:#d9d5d2;fill-opacity:1;stroke:#303539;stroke-width:8.55000019;stroke-miterlimit:4;stroke-opacity:1;stroke-dasharray:none"/><path id="path6182" d="m 79.46419,-136.67797 c -114.627,0 -211.253,-23.543 -243.873,-56 -7.615,7.577 -11.32,15.639 -11.32,24 v 64 c 0,44.184 114.611,80 256,80 141.385,0 256,-35.816 256,-80 v -64 c 0,-8.361 -4.516,-16.423 -12.131,-24 -32.619,32.457 -130.049,56 -244.676,56 z" style="fill:#d9d5d2;fill-opacity:1;stroke:#303539;stroke-width:8.55000019;stroke-miterlimit:4;stroke-opacity:1;stroke-dasharray:none"/><path id="path6184" d="m 79.46419,7.32203 c -114.627,0 -211.253,-23.544 -243.873,-56 -7.615,7.576 -11.32,15.639 -11.32,24 v 64 c 0,44.183 114.611,80 256,80 141.385,0 256,-35.817 256,-80 v -64 c 0,-8.361 -4.516,-16.424 -12.131,-24 -32.619,32.456 -130.049,56 -244.676,56 z" style="fill:#d9d5d2;fill-opacity:1;stroke:#303539;stroke-width:8.55000019;stroke-miterlimit:4;stroke-opacity:1;stroke-dasharray:none"/></g><rect id="rect6186" width="22.052" height="23.072" x="57.621" y="-159.313" style="opacity:.51000001;fill:#000;fill-opacity:1;stroke:none;filter:url(#filter5951)"/><rect style="fill:#fff;fill-opacity:1;stroke:#303539;stroke-opacity:1" id="rect6188" width="22.052" height="23.072" x="55.621" y="-161.313"/><rect style="opacity:.51000001;fill:#000;fill-opacity:1;stroke:none;filter:url(#filter5955)" id="rect6190" width="22.052" height="23.072" x="84.707" y="-133.185"/><rect id="rect6192" width="22.052" height="23.072" x="82.707" y="-135.185" style="fill:#fff;fill-opacity:1;stroke:#303539;stroke-opacity:1"/><text style="font-size:14px;font-style:normal;font-weight:400;text-align:center;line-height:125%;letter-spacing:0;word-spacing:0;text-anchor:middle;fill:#000;fill-opacity:1;stroke:none;font-family:Sans" id="text6194" x="66.865" y="-145.955" xml:space="preserve"><tspan id="tspan6196" x="66.865" y="-145.955">c</tspan></text><text style="font-size:14px;font-style:normal;font-weight:400;text-align:center;line-height:125%;letter-spacing:0;word-spacing:0;text-anchor:middle;fill:#000;fill-opacity:1;stroke:none;font-family:Sans" id="text6198" x="93.613" y="-118.546" xml:space="preserve"><tspan id="tspan6200" x="93.613" y="-118.546">2</tspan></text></g><g id="g8302" transform="translate(-36.024306,-153.02431)"><path id="path6202" d="m 125.71587,110.88233 c 43.27094,-43.270943 67.30475,-43.130733 110.43548,0" style="fill:none;stroke:#000;stroke-width:4;stroke-linecap:butt;stroke-linejoin:miter;stroke-miterlimit:4;stroke-opacity:1;stroke-dasharray:none;marker-start:none;marker-mid:none;marker-end:url(#Arrow1Send)"/><text style="font-size:14px;font-style:normal;font-weight:400;text-align:center;line-height:125%;letter-spacing:0;word-spacing:0;text-anchor:middle;fill:#000;fill-opacity:1;stroke:none;font-family:Sans" id="text5959-2" x="181.5" y="72.335" xml:space="preserve"><tspan id="tspan5961-8" x="181.5" y="72.335">a -&gt; b</tspan></text></g><g id="g8307" transform="translate(150.85444,-153.02431)"><path style="fill:none;stroke:#000;stroke-width:4;stroke-linecap:butt;stroke-linejoin:miter;stroke-miterlimit:4;stroke-opacity:1;stroke-dasharray:none;marker-start:none;marker-mid:none;marker-end:url(#Arrow1Send)" id="path8309" d="m 125.71587,110.88233 c 43.27094,-43.270943 67.30475,-43.130733 110.43548,0"/><text id="text8311" x="181.5" y="72.335" xml:space="preserve" style="font-size:14px;font-style:normal;font-weight:400;text-align:center;line-height:125%;letter-spacing:0;word-spacing:0;text-anchor:middle;fill:#000;fill-opacity:1;stroke:none;font-family:Sans"><tspan id="tspan8313" x="181.5" y="72.335">1 -&gt; 2</tspan></text></g><g id="g8315" transform="translate(265.72003,-153.02431)"><path id="path8317" d="m 125.71587,110.88233 c 43.27094,-43.270943 67.30475,-43.130733 110.43548,0" style="fill:none;stroke:#000;stroke-width:4;stroke-linecap:butt;stroke-linejoin:miter;stroke-miterlimit:4;stroke-opacity:1;stroke-dasharray:none;marker-start:none;marker-mid:none;marker-end:url(#Arrow1Send)"/><text style="font-size:14px;font-style:normal;font-weight:400;text-align:center;line-height:125%;letter-spacing:0;word-spacing:0;text-anchor:middle;fill:#000;fill-opacity:1;stroke:none;font-family:Sans" id="text8319" x="181.5" y="72.335" xml:space="preserve"><tspan id="tspan8321" x="181.5" y="72.335">b -&gt; c</tspan></text></g><rect style="fill:none;stroke:#000;stroke-width:1;stroke-miterlimit:4;stroke-opacity:1;stroke-dasharray:12,12;stroke-dashoffset:0" id="rect8361" width="507.828" height="82.51" x="84.48" y="-113.702"/><rect id="rect8363" width="507.828" height="190.563" x="84.48" y="-10.671" style="fill:none;stroke:#000;stroke-width:1;stroke-miterlimit:4;stroke-opacity:1;stroke-dasharray:12,12;stroke-dashoffset:0"/><text style="font-size:20px;font-style:normal;font-weight:400;text-align:start;line-height:125%;letter-spacing:0;word-spacing:0;text-anchor:start;fill:#000;fill-opacity:1;stroke:none;font-family:Sans" id="text8365" x="87.256" y="-93.985" xml:space="preserve"><tspan id="tspan8367" x="87.256" y="-93.985">MQ</tspan></text><text id="text8369" x="87.256" y="9.015" xml:space="preserve" style="font-size:20px;font-style:normal;font-weight:400;text-align:start;line-height:125%;letter-spacing:0;word-spacing:0;text-anchor:start;fill:#000;fill-opacity:1;stroke:none;font-family:Sans"><tspan id="tspan8371" x="87.256" y="9.015">DB</tspan></text><g id="g9131" transform="translate(72.76704,174.95522)"><g style="opacity:.5;fill:#000;fill-opacity:1;stroke:none;filter:url(#filter5943)" id="g9133" transform="matrix(0.11695906,0,0,0.11695906,72.882747,-118.69224)"><path style="fill:#000;fill-opacity:1;stroke:none" id="path9135" d="m 80.27119,-392.67797 c -141.386,0 -256,35.816 -256,80 v 64 c 0,44.183 114.611,80 256,80 141.385,0 256,-35.817 256,-80 v -64 c 0,-44.184 -114.615,-80 -256,-80 z"/><path style="fill:#000;fill-opacity:1;stroke:none" id="path9137" d="m 79.46419,-136.67797 c -114.627,0 -211.253,-23.543 -243.873,-56 -7.615,7.577 -11.32,15.639 -11.32,24 v 64 c 0,44.184 114.611,80 256,80 141.385,0 256,-35.816 256,-80 v -64 c 0,-8.361 -4.516,-16.423 -12.131,-24 -32.619,32.457 -130.049,56 -244.676,56 z"/><path style="fill:#000;fill-opacity:1;stroke:none" id="path9139" d="m 79.46419,7.32203 c -114.627,0 -211.253,-23.544 -243.873,-56 -7.615,7.576 -11.32,15.639 -11.32,24 v 64 c 0,44.183 114.611,80 256,80 141.385,0 256,-35.817 256,-80 v -64 c 0,-8.361 -4.516,-16.424 -12.131,-24 -32.619,32.456 -130.049,56 -244.676,56 z"/></g><g id="g9141" transform="matrix(0.11695906,0,0,0.11695906,70.882747,-120.69224)" style="fill:#d9d5d2;fill-opacity:1;stroke:#303539;stroke-width:8.55000019;stroke-miterlimit:4;stroke-opacity:1;stroke-dasharray:none"><path id="path9143" d="m 80.27119,-392.67797 c -141.386,0 -256,35.816 -256,80 v 64 c 0,44.183 114.611,80 256,80 141.385,0 256,-35.817 256,-80 v -64 c 0,-44.184 -114.615,-80 -256,-80 z" style="fill:#d9d5d2;fill-opacity:1;stroke:#303539;stroke-width:8.55000019;stroke-miterlimit:4;stroke-opacity:1;stroke-dasharray:none"/><path id="path9145" d="m 79.46419,-136.67797 c -114.627,0 -211.253,-23.543 -243.873,-56 -7.615,7.577 -11.32,15.639 -11.32,24 v 64 c 0,44.184 114.611,80 256,80 141.385,0 256,-35.816 256,-80 v -64 c 0,-8.361 -4.516,-16.423 -12.131,-24 -32.619,32.457 -130.049,56 -244.676,56 z" style="fill:#d9d5d2;fill-opacity:1;stroke:#303539;stroke-width:8.55000019;stroke-miterlimit:4;stroke-opacity:1;stroke-dasharray:none"/><path id="path9147" d="m 79.46419,7.32203 c -114.627,0 -211.253,-23.544 -243.873,-56 -7.615,7.576 -11.32,15.639 -11.32,24 v 64 c 0,44.183 114.611,80 256,80 141.385,0 256,-35.817 256,-80 v -64 c 0,-8.361 -4.516,-16.424 -12.131,-24 -32.619,32.456 -130.049,56 -244.676,56 z" style="fill:#d9d5d2;fill-opacity:1;stroke:#303539;stroke-width:8.55000019;stroke-miterlimit:4;stroke-opacity:1;stroke-dasharray:none"/></g><rect id="rect9149" width="22.052" height="23.072" x="57.621" y="-159.313" style="opacity:.51000001;fill:#000;fill-opacity:1;stroke:none;filter:url(#filter5951)"/><rect style="fill:#fff;fill-opacity:1;stroke:#303539;stroke-opacity:1" id="rect9151" width="22.052" height="23.072" x="55.621" y="-161.313"/><rect style="opacity:.51000001;fill:#000;fill-opacity:1;stroke:none;filter:url(#filter5955)" id="rect9153" width="22.052" height="23.072" x="84.707" y="-133.185"/><rect id="rect9155" width="22.052" height="23.072" x="82.707" y="-135.185" style="fill:#fff;fill-opacity:1;stroke:#303539;stroke-opacity:1"/><text style="font-size:14px;font-style:normal;font-weight:400;text-align:center;line-height:125%;letter-spacing:0;word-spacing:0;text-anchor:middle;fill:#000;fill-opacity:1;stroke:none;font-family:Sans" id="text9157" x="66.865" y="-145.955" xml:space="preserve"><tspan id="tspan9159" x="66.865" y="-145.955">a</tspan></text><text style="font-size:14px;font-style:normal;font-weight:400;text-align:center;line-height:125%;letter-spacing:0;word-spacing:0;text-anchor:middle;fill:#000;fill-opacity:1;stroke:none;font-family:Sans" id="text9161" x="93.613" y="-118.546" xml:space="preserve"><tspan id="tspan9163" x="93.613" y="-118.546">1</tspan></text></g><g id="g9165" transform="translate(151.2211,174.95522)"><g id="g9167" transform="matrix(0.11695906,0,0,0.11695906,72.882747,-118.69224)" style="opacity:.5;fill:#000;fill-opacity:1;stroke:none;filter:url(#filter5943)"><path id="path9169" d="m 80.27119,-392.67797 c -141.386,0 -256,35.816 -256,80 v 64 c 0,44.183 114.611,80 256,80 141.385,0 256,-35.817 256,-80 v -64 c 0,-44.184 -114.615,-80 -256,-80 z" style="fill:#000;fill-opacity:1;stroke:none"/><path id="path9171" d="m 79.46419,-136.67797 c -114.627,0 -211.253,-23.543 -243.873,-56 -7.615,7.577 -11.32,15.639 -11.32,24 v 64 c 0,44.184 114.611,80 256,80 141.385,0 256,-35.816 256,-80 v -64 c 0,-8.361 -4.516,-16.423 -12.131,-24 -32.619,32.457 -130.049,56 -244.676,56 z" style="fill:#000;fill-opacity:1;stroke:none"/><path id="path9173" d="m 79.46419,7.32203 c -114.627,0 -211.253,-23.544 -243.873,-56 -7.615,7.576 -11.32,15.639 -11.32,24 v 64 c 0,44.183 114.611,80 256,80 141.385,0 256,-35.817 256,-80 v -64 c 0,-8.361 -4.516,-16.424 -12.131,-24 -32.619,32.456 -130.049,56 -244.676,56 z" style="fill:#000;fill-opacity:1;stroke:none"/></g><g style="fill:#d9d5d2;fill-opacity:1;stroke:#303539;stroke-width:8.55000019;stroke-miterlimit:4;stroke-opacity:1;stroke-dasharray:none" id="g9175" transform="matrix(0.11695906,0,0,0.11695906,70.882747,-120.69224)"><path style="fill:#d9d5d2;fill-opacity:1;stroke:#303539;stroke-width:8.55000019;stroke-miterlimit:4;stroke-opacity:1;stroke-dasharray:none" id="path9177" d="m 80.27119,-392.67797 c -141.386,0 -256,35.816 -256,80 v 64 c 0,44.183 114.611,80 256,80 141.385,0 256,-35.817 256,-80 v -64 c 0,-44.184 -114.615,-80 -256,-80 z"/><path style="fill:#d9d5d2;fill-opacity:1;stroke:#303539;stroke-width:8.55000019;stroke-miterlimit:4;stroke-opacity:1;stroke-dasharray:none" id="path9179" d="m 79.46419,-136.67797 c -114.627,0 -211.253,-23.543 -243.873,-56 -7.615,7.577 -11.32,15.639 -11.32,24 v 64 c 0,44.184 114.611,80 256,80 141.385,0 256,-35.816 256,-80 v -64 c 0,-8.361 -4.516,-16.423 -12.131,-24 -32.619,32.457 -130.049,56 -244.676,56 z"/><path style="fill:#d9d5d2;fill-opacity:1;stroke:#303539;stroke-width:8.55000019;stroke-miterlimit:4;stroke-opacity:1;stroke-dasharray:none" id="path9181" d="m 79.46419,7.32203 c -114.627,0 -211.253,-23.544 -243.873,-56 -7.615,7.576 -11.32,15.639 -11.32,24 v 64 c 0,44.183 114.611,80 256,80 141.385,0 256,-35.817 256,-80 v -64 c 0,-8.361 -4.516,-16.424 -12.131,-24 -32.619,32.456 -130.049,56 -244.676,56 z"/></g><rect style="opacity:.51000001;fill:#000;fill-opacity:1;stroke:none;filter:url(#filter5951)" id="rect9183" width="22.052" height="23.072" x="57.621" y="-159.313"/><rect id="rect9185" width="22.052" height="23.072" x="55.621" y="-161.313" style="fill:#fff;fill-opacity:1;stroke:#303539;stroke-opacity:1"/><rect id="rect9187" width="22.052" height="23.072" x="84.707" y="-133.185" style="opacity:.51000001;fill:#000;fill-opacity:1;stroke:none;filter:url(#filter5955)"/><rect style="fill:#fff;fill-opacity:1;stroke:#303539;stroke-opacity:1" id="rect9189" width="22.052" height="23.072" x="82.707" y="-135.185"/><text id="text9191" x="66.865" y="-145.955" xml:space="preserve" style="font-size:14px;font-style:normal;font-weight:400;text-align:center;line-height:125%;letter-spacing:0;word-spacing:0;text-anchor:middle;fill:#000;fill-opacity:1;stroke:none;font-family:Sans"><tspan id="tspan9193" x="66.865" y="-145.955">b</tspan></text><text id="text9195" x="93.613" y="-118.546" xml:space="preserve" style="font-size:14px;font-style:normal;font-weight:400;text-align:center;line-height:125%;letter-spacing:0;word-spacing:0;text-anchor:middle;fill:#000;fill-opacity:1;stroke:none;font-family:Sans"><tspan id="tspan9197" x="93.613" y="-118.546">1</tspan></text></g><g id="g9199" transform="translate(227.57529,174.95522)"><g style="opacity:.5;fill:#000;fill-opacity:1;stroke:none;filter:url(#filter5943)" id="g9201" transform="matrix(0.11695906,0,0,0.11695906,72.882747,-118.69224)"><path style="fill:#000;fill-opacity:1;stroke:none" id="path9203" d="m 80.27119,-392.67797 c -141.386,0 -256,35.816 -256,80 v 64 c 0,44.183 114.611,80 256,80 141.385,0 256,-35.817 256,-80 v -64 c 0,-44.184 -114.615,-80 -256,-80 z"/><path style="fill:#000;fill-opacity:1;stroke:none" id="path9205" d="m 79.46419,-136.67797 c -114.627,0 -211.253,-23.543 -243.873,-56 -7.615,7.577 -11.32,15.639 -11.32,24 v 64 c 0,44.184 114.611,80 256,80 141.385,0 256,-35.816 256,-80 v -64 c 0,-8.361 -4.516,-16.423 -12.131,-24 -32.619,32.457 -130.049,56 -244.676,56 z"/><path style="fill:#000;fill-opacity:1;stroke:none" id="path9207" d="m 79.46419,7.32203 c -114.627,0 -211.253,-23.544 -243.873,-56 -7.615,7.576 -11.32,15.639 -11.32,24 v 64 c 0,44.183 114.611,80 256,80 141.385,0 256,-35.817 256,-80 v -64 c 0,-8.361 -4.516,-16.424 -12.131,-24 -32.619,32.456 -130.049,56 -244.676,56 z"/></g><g id="g9209" transform="matrix(0.11695906,0,0,0.11695906,70.882747,-120.69224)" style="fill:#d9d5d2;fill-opacity:1;stroke:#303539;stroke-width:8.55000019;stroke-miterlimit:4;stroke-opacity:1;stroke-dasharray:none"><path id="path9211" d="m 80.27119,-392.67797 c -141.386,0 -256,35.816 -256,80 v 64 c 0,44.183 114.611,80 256,80 141.385,0 256,-35.817 256,-80 v -64 c 0,-44.184 -114.615,-80 -256,-80 z" style="fill:#d9d5d2;fill-opacity:1;stroke:#303539;stroke-width:8.55000019;stroke-miterlimit:4;stroke-opacity:1;stroke-dasharray:none"/><path id="path9213" d="m 79.46419,-136.67797 c -114.627,0 -211.253,-23.543 -243.873,-56 -7.615,7.577 -11.32,15.639 -11.32,24 v 64 c 0,44.184 114.611,80 256,80 141.385,0 256,-35.816 256,-80 v -64 c 0,-8.361 -4.516,-16.423 -12.131,-24 -32.619,32.457 -130.049,56 -244.676,56 z" style="fill:#d9d5d2;fill-opacity:1;stroke:#303539;stroke-width:8.55000019;stroke-miterlimit:4;stroke-opacity:1;stroke-dasharray:none"/><path id="path9215" d="m 79.46419,7.32203 c -114.627,0 -211.253,-23.544 -243.873,-56 -7.615,7.576 -11.32,15.639 -11.32,24 v 64 c 0,44.183 114.611,80 256,80 141.385,0 256,-35.817 256,-80 v -64 c 0,-8.361 -4.516,-16.424 -12.131,-24 -32.619,32.456 -130.049,56 -244.676,56 z" style="fill:#d9d5d2;fill-opacity:1;stroke:#303539;stroke-width:8.55000019;stroke-miterlimit:4;stroke-opacity:1;stroke-dasharray:none"/></g><rect id="rect9217" width="22.052" height="23.072" x="57.621" y="-159.313" style="opacity:.51000001;fill:#000;fill-opacity:1;stroke:none;filter:url(#filter5951)"/><rect style="fill:#fff;fill-opacity:1;stroke:#303539;stroke-opacity:1" id="rect9219" width="22.052" height="23.072" x="55.621" y="-161.313"/><rect style="opacity:.51000001;fill:#000;fill-opacity:1;stroke:none;filter:url(#filter5955)" id="rect9221" width="22.052" height="23.072" x="84.707" y="-133.185"/><rect id="rect9223" width="22.052" height="23.072" x="82.707" y="-135.185" style="fill:#fff;fill-opacity:1;stroke:#303539;stroke-opacity:1"/><text style="font-size:14px;font-style:normal;font-weight:400;text-align:center;line-height:125%;letter-spacing:0;word-spacing:0;text-anchor:middle;fill:#000;fill-opacity:1;stroke:none;font-family:Sans" id="text9225" x="66.865" y="-145.955" xml:space="preserve"><tspan id="tspan9227" x="66.865" y="-145.955">b</tspan></text><text style="font-size:14px;font-style:normal;font-weight:400;text-align:center;line-height:125%;letter-spacing:0;word-spacing:0;text-anchor:middle;fill:#000;fill-opacity:1;stroke:none;font-family:Sans" id="text9229" x="93.613" y="-118.546" xml:space="preserve"><tspan id="tspan9231" x="93.613" y="-118.546">2</tspan></text></g><g id="g9233" transform="translate(304.10685,174.95522)"><g id="g9235" transform="matrix(0.11695906,0,0,0.11695906,72.882747,-118.69224)" style="opacity:.5;fill:#000;fill-opacity:1;stroke:none;filter:url(#filter5943)"><path id="path9237" d="m 80.27119,-392.67797 c -141.386,0 -256,35.816 -256,80 v 64 c 0,44.183 114.611,80 256,80 141.385,0 256,-35.817 256,-80 v -64 c 0,-44.184 -114.615,-80 -256,-80 z" style="fill:#000;fill-opacity:1;stroke:none"/><path id="path9239" d="m 79.46419,-136.67797 c -114.627,0 -211.253,-23.543 -243.873,-56 -7.615,7.577 -11.32,15.639 -11.32,24 v 64 c 0,44.184 114.611,80 256,80 141.385,0 256,-35.816 256,-80 v -64 c 0,-8.361 -4.516,-16.423 -12.131,-24 -32.619,32.457 -130.049,56 -244.676,56 z" style="fill:#000;fill-opacity:1;stroke:none"/><path id="path9241" d="m 79.46419,7.32203 c -114.627,0 -211.253,-23.544 -243.873,-56 -7.615,7.576 -11.32,15.639 -11.32,24 v 64 c 0,44.183 114.611,80 256,80 141.385,0 256,-35.817 256,-80 v -64 c 0,-8.361 -4.516,-16.424 -12.131,-24 -32.619,32.456 -130.049,56 -244.676,56 z" style="fill:#000;fill-opacity:1;stroke:none"/></g><g style="fill:#d9d5d2;fill-opacity:1;stroke:#303539;stroke-width:8.55000019;stroke-miterlimit:4;stroke-opacity:1;stroke-dasharray:none" id="g9243" transform="matrix(0.11695906,0,0,0.11695906,70.882747,-120.69224)"><path style="fill:#d9d5d2;fill-opacity:1;stroke:#303539;stroke-width:8.55000019;stroke-miterlimit:4;stroke-opacity:1;stroke-dasharray:none" id="path9245" d="m 80.27119,-392.67797 c -141.386,0 -256,35.816 -256,80 v 64 c 0,44.183 114.611,80 256,80 141.385,0 256,-35.817 256,-80 v -64 c 0,-44.184 -114.615,-80 -256,-80 z"/><path style="fill:#d9d5d2;fill-opacity:1;stroke:#303539;stroke-width:8.55000019;stroke-miterlimit:4;stroke-opacity:1;stroke-dasharray:none" id="path9247" d="m 79.46419,-136.67797 c -114.627,0 -211.253,-23.543 -243.873,-56 -7.615,7.577 -11.32,15.639 -11.32,24 v 64 c 0,44.184 114.611,80 256,80 141.385,0 256,-35.816 256,-80 v -64 c 0,-8.361 -4.516,-16.423 -12.131,-24 -32.619,32.457 -130.049,56 -244.676,56 z"/><path style="fill:#d9d5d2;fill-opacity:1;stroke:#303539;stroke-width:8.55000019;stroke-miterlimit:4;stroke-opacity:1;stroke-dasharray:none" id="path9249" d="m 79.46419,7.32203 c -114.627,0 -211.253,-23.544 -243.873,-56 -7.615,7.576 -11.32,15.639 -11.32,24 v 64 c 0,44.183 114.611,80 256,80 141.385,0 256,-35.817 256,-80 v -64 c 0,-8.361 -4.516,-16.424 -12.131,-24 -32.619,32.456 -130.049,56 -244.676,56 z"/></g><rect style="opacity:.51000001;fill:#000;fill-opacity:1;stroke:none;filter:url(#filter5951)" id="rect9251" width="22.052" height="23.072" x="57.621" y="-159.313"/><rect id="rect9253" width="22.052" height="23.072" x="55.621" y="-161.313" style="fill:#fff;fill-opacity:1;stroke:#303539;stroke-opacity:1"/><rect id="rect9255" width="22.052" height="23.072" x="84.707" y="-133.185" style="opacity:.51000001;fill:#000;fill-opacity:1;stroke:none;filter:url(#filter5955)"/><rect style="fill:#fff;fill-opacity:1;stroke:#303539;stroke-opacity:1" id="rect9257" width="22.052" height="23.072" x="82.707" y="-135.185"/><text id="text9259" x="66.865" y="-145.955" xml:space="preserve" style="font-size:14px;font-style:normal;font-weight:400;text-align:center;line-height:125%;letter-spacing:0;word-spacing:0;text-anchor:middle;fill:#000;fill-opacity:1;stroke:none;font-family:Sans"><tspan id="tspan9261" x="66.865" y="-145.955">c</tspan></text><text id="text9263" x="93.613" y="-118.546" xml:space="preserve" style="font-size:14px;font-style:normal;font-weight:400;text-align:center;line-height:125%;letter-spacing:0;word-spacing:0;text-anchor:middle;fill:#000;fill-opacity:1;stroke:none;font-family:Sans"><tspan id="tspan9265" x="93.613" y="-118.546">2</tspan></text></g></g></svg>