<svg xmlns="http://www.w3.org/2000/svg" xmlns:cc="http://web.resource.org/cc/" xmlns:svg="http://www.w3.org/2000/svg" id="svg602" width="724.691" height="410" x="0" y="0" version="1.0" xml:space="preserve"><metadata id="metadata164"/><path style="font-size:12px;fill:#b52487;fill-opacity:.23699999;fill-rule:evenodd" id="path703" d="M 367.05525,192.7783 L 495.57061,323.0027 L 719.89985,323.227 L 720.77417,66.016898 L 638.18326,66.272598 L 367.05525,192.7783 z"/><path style="font-size:12px;fill:#455ab5;fill-opacity:.23699999;fill-rule:evenodd" id="path702" d="M 41.36927,64.590198 L 41.99428,347.0194 L 73.01245,345.8591 L 372.15555,197.1989 L 284.18465,66.541198 L 41.36927,64.590198 z"/><rect style="font-size:12px;fill:gray;fill-rule:evenodd" id="rect605" width="647.191" height="1" x="34.615" y="80.155"/><text style="font-size:32px;font-weight:400;text-anchor:middle;stroke-width:1;font-family:Luxi Sans" id="text606" x="19.844" y="90.156"><tspan id="tspan607">A</tspan></text><text style="font-size:32px;font-weight:400;text-anchor:middle;stroke-width:1;font-family:Luxi Sans" id="text613" x="38.844" y="28.906"><tspan id="tspan614">Time</tspan></text><g style="font-size:12px" id="g624" transform="translate(-23.65625,-23.4559)"><rect style="fill:gray;fill-rule:evenodd" id="rect612" width="180.941" height="7.25" x="34.771" y="63.611"/><path style="fill:gray;fill-rule:evenodd" id="path617" d="M 208.75,52.36221 L 208.75,81.11221 L 231.25,67.36221 L 208.75,52.36221 z"/></g><rect style="font-size:12px;fill:gray;fill-rule:evenodd" id="rect630" width="647.191" height="1" x="34.615" y="192.655"/><text style="font-size:32px;font-weight:400;text-anchor:middle;stroke-width:1;font-family:Luxi Sans" id="text631" x="19.844" y="202.656"><tspan id="tspan632">B</tspan></text><rect style="font-size:12px;fill:gray;fill-rule:evenodd" id="rect639" width="647.191" height="1" x="34.615" y="307.655"/><text style="font-size:32px;font-weight:400;text-anchor:middle;stroke-width:1;font-family:Luxi Sans" id="text640" x="19.844" y="317.656"><tspan id="tspan641">C</tspan></text><rect style="font-size:12px;fill-rule:evenodd" id="rect653" width="11.25" height="12.5" x="137.344" y="187.031"/><g style="font-size:12px" id="g664" transform="matrix(0.965705,0,0,0.959017,133.1729,-35.70905)"><path style="fill:gray;fill-rule:evenodd" id="path662" d="M 155.0497,128.3383 C 154.7307,127.9653 154.172,127.9201 153.7972,128.237 L 152.0604,129.7053 C 151.6855,130.0222 151.6406,130.5777 151.9596,130.9507 L 233.8829,226.9048 C 234.202,227.2778 234.7607,227.3231 235.1355,227.0061 L 236.8723,225.5378 C 237.2471,225.2209 237.2921,224.6654 236.973,224.2924 L 155.0497,128.3383 z"/><path style="fill:gray;fill-rule:evenodd" id="path629" d="M 239.2159,220.4628 L 230.6008,228.3223 L 242.8681,234.7774 L 239.2159,220.4628 z"/><path style="fill:gray;fill-rule:evenodd" id="path663" d="M 155.0497,128.3383 C 154.7307,127.9653 154.172,127.9201 153.7972,128.237 L 152.0604,129.7053 C 151.6855,130.0222 151.6406,130.5777 151.9596,130.9507 L 233.8829,226.9048 C 234.202,227.2778 234.7607,227.3231 235.1355,227.0061 L 236.8723,225.5378 C 237.2471,225.2209 237.2921,224.6654 236.973,224.2924 L 155.0497,128.3383 z"/></g><g style="font-size:12px" id="g668" transform="matrix(-0.23374,-0.898812,0.892631,-0.235359,91.47655,361.054)"><path style="fill:gray;fill-rule:evenodd" id="path669" d="M 155.0497,128.3383 C 154.7307,127.9653 154.172,127.9201 153.7972,128.237 L 152.0604,129.7053 C 151.6855,130.0222 151.6406,130.5777 151.9596,130.9507 L 233.8829,226.9048 C 234.202,227.2778 234.7607,227.3231 235.1355,227.0061 L 236.8723,225.5378 C 237.2471,225.2209 237.2921,224.6654 236.973,224.2924 L 155.0497,128.3383 z"/><path style="fill:gray;fill-rule:evenodd" id="path670" d="M 239.2159,220.4628 L 230.6008,228.3223 L 242.8681,234.7774 L 239.2159,220.4628 z"/><path style="fill:gray;fill-rule:evenodd" id="path671" d="M 155.0497,128.3383 C 154.7307,127.9653 154.172,127.9201 153.7972,128.237 L 152.0604,129.7053 C 151.6855,130.0222 151.6406,130.5777 151.9596,130.9507 L 233.8829,226.9048 C 234.202,227.2778 234.7607,227.3231 235.1355,227.0061 L 236.8723,225.5378 C 237.2471,225.2209 237.2921,224.6654 236.973,224.2924 L 155.0497,128.3383 z"/></g><g style="font-size:12px" id="g676" transform="matrix(0.999802,-1.985075e-2,1.985075e-2,0.999802,270.3295,73.4556)"><path style="fill:gray;fill-rule:evenodd" id="path677" d="M 155.0497,128.3383 C 154.7307,127.9653 154.172,127.9201 153.7972,128.237 L 152.0604,129.7053 C 151.6855,130.0222 151.6406,130.5777 151.9596,130.9507 L 233.8829,226.9048 C 234.202,227.2778 234.7607,227.3231 235.1355,227.0061 L 236.8723,225.5378 C 237.2471,225.2209 237.2921,224.6654 236.973,224.2924 L 155.0497,128.3383 z"/><path style="fill:gray;fill-rule:evenodd" id="path678" d="M 239.2159,220.4628 L 230.6008,228.3223 L 242.8681,234.7774 L 239.2159,220.4628 z"/><path style="fill:gray;fill-rule:evenodd" id="path679" d="M 155.0497,128.3383 C 154.7307,127.9653 154.172,127.9201 153.7972,128.237 L 152.0604,129.7053 C 151.6855,130.0222 151.6406,130.5777 151.9596,130.9507 L 233.8829,226.9048 C 234.202,227.2778 234.7607,227.3231 235.1355,227.0061 L 236.8723,225.5378 C 237.2471,225.2209 237.2921,224.6654 236.973,224.2924 L 155.0497,128.3383 z"/></g><g style="font-size:12px" id="g680" transform="matrix(0.945128,0,0,0.970726,144.4204,75.9169)"><path style="fill:gray;fill-rule:evenodd" id="path681" d="M 155.0497,128.3383 C 154.7307,127.9653 154.172,127.9201 153.7972,128.237 L 152.0604,129.7053 C 151.6855,130.0222 151.6406,130.5777 151.9596,130.9507 L 233.8829,226.9048 C 234.202,227.2778 234.7607,227.3231 235.1355,227.0061 L 236.8723,225.5378 C 237.2471,225.2209 237.2921,224.6654 236.973,224.2924 L 155.0497,128.3383 z"/><path style="fill:gray;fill-rule:evenodd" id="path682" d="M 239.2159,220.4628 L 230.6008,228.3223 L 242.8681,234.7774 L 239.2159,220.4628 z"/><path style="fill:gray;fill-rule:evenodd" id="path683" d="M 155.0497,128.3383 C 154.7307,127.9653 154.172,127.9201 153.7972,128.237 L 152.0604,129.7053 C 151.6855,130.0222 151.6406,130.5777 151.9596,130.9507 L 233.8829,226.9048 C 234.202,227.2778 234.7607,227.3231 235.1355,227.0061 L 236.8723,225.5378 C 237.2471,225.2209 237.2921,224.6654 236.973,224.2924 L 155.0497,128.3383 z"/></g><g style="font-size:12px" id="g697" transform="matrix(-0.205647,-0.93856,0.941213,-0.205067,-33.76705,475.0205)"><path style="fill:gray;fill-rule:evenodd" id="path698" d="M 155.0497,128.3383 C 154.7307,127.9653 154.172,127.9201 153.7972,128.237 L 152.0604,129.7053 C 151.6855,130.0222 151.6406,130.5777 151.9596,130.9507 L 233.8829,226.9048 C 234.202,227.2778 234.7607,227.3231 235.1355,227.0061 L 236.8723,225.5378 C 237.2471,225.2209 237.2921,224.6654 236.973,224.2924 L 155.0497,128.3383 z"/><path style="fill:gray;fill-rule:evenodd" id="path699" d="M 239.2159,220.4628 L 230.6008,228.3223 L 242.8681,234.7774 L 239.2159,220.4628 z"/><path style="fill:gray;fill-rule:evenodd" id="path700" d="M 155.0497,128.3383 C 154.7307,127.9653 154.172,127.9201 153.7972,128.237 L 152.0604,129.7053 C 151.6855,130.0222 151.6406,130.5777 151.9596,130.9507 L 233.8829,226.9048 C 234.202,227.2778 234.7607,227.3231 235.1355,227.0061 L 236.8723,225.5378 C 237.2471,225.2209 237.2921,224.6654 236.973,224.2924 L 155.0497,128.3383 z"/></g><g style="font-size:12px" id="g704" transform="matrix(0.951025,0,0,0.967159,-21.82762,-27.64195)"><path style="fill:gray;fill-rule:evenodd" id="path695" d="M 568.4155,127.8717 L 577.6377,131.93 L 578.432,119.94 L 568.4155,127.8717 z"/><path style="fill:gray;fill-rule:evenodd" id="path694" d="M 155.0497,128.3383 C 154.7307,127.9653 154.172,127.9201 153.7972,128.237 L 152.0604,129.7053 C 151.6855,130.0222 151.6406,130.5777 151.9596,130.9507 L 330.6068,347.4786 C 330.9259,347.8516 331.4846,347.8969 331.8594,347.5799 L 333.5962,346.1116 C 332.4304,347.4863 332.6982,344.6538 333.6969,344.8662 L 155.0497,128.3383 z" transform="matrix(-0.350514,-0.792181,0.789169,-0.351981,416.7191,514.3477)"/></g><g style="font-size:12px" id="g707" transform="matrix(0.961908,0,0,0.978106,91.87715,-31.45497)"><path style="fill:gray;fill-rule:evenodd" id="path708" d="M 568.4155,127.8717 L 577.6377,131.93 L 578.432,119.94 L 568.4155,127.8717 z"/><path style="fill:gray;fill-rule:evenodd" id="path709" d="M 155.0497,128.3383 C 154.7307,127.9653 154.172,127.9201 153.7972,128.237 L 152.0604,129.7053 C 151.6855,130.0222 151.6406,130.5777 151.9596,130.9507 L 330.6068,347.4786 C 330.9259,347.8516 331.4846,347.8969 331.8594,347.5799 L 333.5962,346.1116 C 332.4304,347.4863 332.6982,344.6538 333.6969,344.8662 L 155.0497,128.3383 z" transform="matrix(-0.350514,-0.792181,0.789169,-0.351981,416.7191,514.3477)"/></g><rect style="font-size:12px;fill-rule:evenodd" id="rect712" width="11.25" height="12.5" x="167.969" y="187.031"/><rect style="font-size:12px;fill-rule:evenodd" id="rect618" width="11.25" height="12.5" x="271.094" y="76.406"/><rect style="font-size:12px;fill-rule:evenodd" id="rect716" width="11.25" height="12.5" x="361.719" y="188.906"/><rect style="font-size:12px;fill-rule:evenodd" id="rect720" width="11.25" height="12.5" x="417.344" y="188.906"/><rect style="font-size:12px;fill-rule:evenodd" id="rect643" width="11.25" height="12.5" x="51.094" y="302.656"/><rect style="font-size:12px;fill-rule:evenodd" id="rect730" width="11.25" height="12.5" x="372.969" y="302.656"/><rect style="font-size:12px;fill-rule:evenodd" id="rect734" width="11.25" height="12.5" x="416.719" y="302.031"/><rect style="font-size:12px;fill-rule:evenodd" id="rect738" width="11.25" height="12.5" x="510.469" y="303.906"/><rect style="font-size:12px;fill-rule:evenodd" id="rect742" width="11.25" height="12.5" x="538.594" y="303.906"/><rect style="font-size:12px;fill-rule:evenodd" id="rect751" width="11.25" height="12.5" x="241.094" y="75.781"/><text style="font-size:18px;font-weight:400;text-anchor:middle;fill:#d90000;stroke-width:1;font-family:Luxi Sans" id="text752" x="245.549" y="108.906" xml:space="preserve"><tspan id="tspan753" x="245.549" y="108.906">A:1</tspan></text><rect style="font-size:12px;fill-rule:evenodd" id="rect755" width="11.25" height="12.5" x="529.219" y="75.781"/><rect style="font-size:12px;fill-rule:evenodd" id="rect759" width="11.25" height="12.5" x="649.219" y="75.156"/><rect style="font-size:12px;fill-rule:evenodd" id="rect763" width="11.25" height="12.5" x="277.344" y="187.031"/><text style="font-size:24.00007629px;font-weight:400;text-anchor:middle;fill:#0000bc;stroke:#0000bc;stroke-width:1.00000358;font-family:Luxi Sans" id="text767" x="-75.339" y="169.786" transform="matrix(0.438411,-0.898775,0.898775,0.438411,0,0)" xml:space="preserve"><tspan id="tspan774" x="-75.339" y="169.786" style="stroke-width:1.00000358">Cause</tspan></text><text style="font-size:24.00008392px;font-weight:400;text-anchor:middle;fill:#c90072;stroke:#c90072;stroke-width:1.00000393;font-family:Luxi Sans" id="text776" x="66.625" y="692.256" transform="matrix(0.438411,-0.898775,0.898775,0.438411,0,0)" xml:space="preserve"><tspan id="tspan779" x="66.625" y="692.256" style="stroke-width:1.00000393">Effect</tspan></text><text style="font-size:23.99988747px;font-weight:400;text-anchor:middle;fill:#c9c9c9;stroke:#c9c9c9;stroke-width:.99999541;font-family:Luxi Sans" id="text784" x="6.335" y="421.782" transform="matrix(0.763489,-0.64582,0.64582,0.763489,0,0)" xml:space="preserve"><tspan style="fill:#c9c9c9;stroke:#c9c9c9;stroke-width:.99999541" id="tspan787" x="6.335" y="421.782">Independent</tspan></text><text style="font-size:23.99988747px;font-weight:400;text-anchor:middle;fill:#c9c9c9;stroke:#c9c9c9;stroke-width:.99999541;font-family:Luxi Sans" id="text789" x="264.575" y="343.718" transform="matrix(0.763489,-0.64582,0.64582,0.763489,0,0)" xml:space="preserve"><tspan style="fill:#c9c9c9;stroke:#c9c9c9;stroke-width:.99999541" id="tspan790" x="264.575" y="343.718">Independent</tspan></text><rect style="font-size:12px;fill:none;fill-rule:evenodd;stroke:#000;stroke-width:.96922898" id="rect792" width="35" height="61.25" x="230.55" y="92.031"/><text style="font-size:18px;font-weight:400;text-anchor:middle;fill:#d90000;stroke-width:1;font-family:Luxi Sans" id="text793" x="245.549" y="128.281" xml:space="preserve"><tspan id="tspan794" x="245.549" y="128.281">B:2</tspan></text><text style="font-size:18px;font-weight:400;text-anchor:middle;fill:#d90000;stroke-width:1;font-family:Luxi Sans" id="text796" x="244.924" y="146.406" xml:space="preserve"><tspan id="tspan797" x="244.924" y="146.406">C:1</tspan></text><text style="font-size:18px;font-weight:400;text-anchor:middle;stroke-width:1;font-family:Luxi Sans" id="text799" x="19.844" y="112.031" xml:space="preserve"><tspan id="tspan800" x="19.844" y="112.031">A:0</tspan></text><rect style="font-size:12px;fill:none;fill-rule:evenodd;stroke:#000;stroke-width:.96922898" id="rect802" width="35" height="61.25" x="4.844" y="95.156"/><rect style="font-size:12px;fill:none;fill-rule:evenodd;stroke:#000;stroke-width:.96922898" id="rect812" width="35" height="61.25" x="5.469" y="322.656"/><text style="font-size:18px;font-weight:400;text-anchor:middle;stroke-width:1;font-family:Luxi Sans" id="text816" x="20.469" y="377.031" xml:space="preserve"><tspan id="tspan817" x="20.469" y="377.031">C:0</tspan></text><rect style="font-size:12px;fill:none;fill-rule:evenodd;stroke:#000;stroke-width:.96922898" id="rect822" width="35" height="61.25" x="2.344" y="205.156"/><text style="font-size:18px;font-weight:400;text-anchor:middle;stroke-width:1;font-family:Luxi Sans" id="text823" x="17.344" y="241.406" xml:space="preserve"><tspan id="tspan824" x="17.344" y="241.406">B:0</tspan></text><rect style="font-size:12px;fill:none;fill-rule:evenodd;stroke:#000;stroke-width:.96922898" id="rect832" width="35" height="61.25" x="159.587" y="204.514"/><text style="font-size:18px;font-weight:400;text-anchor:middle;fill:#d90000;stroke-width:1;font-family:Luxi Sans" id="text833" x="174.587" y="240.764" xml:space="preserve"><tspan id="tspan834" x="174.587" y="240.764">B:2</tspan></text><text style="font-size:18px;font-weight:400;text-anchor:middle;stroke-width:1;font-family:Luxi Sans" id="text836" x="173.962" y="258.889" xml:space="preserve"><tspan id="tspan837" x="173.962" y="258.889">C:1</tspan></text><rect style="font-size:12px;fill:none;fill-rule:evenodd;stroke:#000;stroke-width:.96922898" id="rect842" width="35" height="61.25" x="121.086" y="204.514"/><text style="font-size:18px;font-weight:400;text-anchor:middle;fill:#d90000;stroke-width:1;font-family:Luxi Sans" id="text843" x="136.086" y="240.764" xml:space="preserve"><tspan id="tspan844" x="136.086" y="240.764">B:1</tspan></text><text style="font-size:18px;font-weight:400;text-anchor:middle;fill:#d90000;stroke-width:1;font-family:Luxi Sans" id="text846" x="135.461" y="258.889" xml:space="preserve"><tspan id="tspan847" x="135.461" y="258.889">C:1</tspan></text><rect style="font-size:12px;fill:none;fill-rule:evenodd;stroke:#000;stroke-width:.96922898" id="rect852" width="35" height="61.25" x="45.593" y="316.998"/><text style="font-size:18px;font-weight:400;text-anchor:middle;fill:#d90000;stroke-width:1;font-family:Luxi Sans" id="text856" x="59.968" y="371.373" xml:space="preserve"><tspan id="tspan857" x="59.968" y="371.373">C:1</tspan></text><text style="font-size:18px;font-weight:400;text-anchor:middle;fill:#d90000;stroke-width:1;font-family:Luxi Sans" id="text859" x="284.805" y="108.906" xml:space="preserve"><tspan id="tspan860" x="284.805" y="108.906">A:2</tspan></text><rect style="font-size:12px;fill:none;fill-rule:evenodd;stroke:#000;stroke-width:.96922898" id="rect862" width="35" height="61.25" x="269.806" y="92.031"/><text style="font-size:18px;font-weight:400;text-anchor:middle;stroke-width:1;font-family:Luxi Sans" id="text863" x="284.805" y="128.281" xml:space="preserve"><tspan id="tspan864" x="284.805" y="128.281">B:2</tspan></text><text style="font-size:18px;font-weight:400;text-anchor:middle;stroke-width:1;font-family:Luxi Sans" id="text866" x="284.18" y="146.406" xml:space="preserve"><tspan id="tspan867" x="284.18" y="146.406">C:1</tspan></text><text style="font-size:18px;font-weight:400;text-anchor:middle;fill:#d90000;stroke-width:1;font-family:Luxi Sans" id="text872" x="367.847" y="221.389" xml:space="preserve"><tspan id="tspan873" x="367.847" y="221.389">A:2</tspan></text><rect style="font-size:12px;fill:none;fill-rule:evenodd;stroke:#000;stroke-width:.96922898" id="rect875" width="35" height="61.25" x="352.847" y="204.514"/><text style="font-size:18px;font-weight:400;text-anchor:middle;fill:#d90000;stroke-width:1;font-family:Luxi Sans" id="text876" x="367.847" y="240.764" xml:space="preserve"><tspan id="tspan877" x="367.847" y="240.764">B:4</tspan></text><text style="font-size:18px;font-weight:400;text-anchor:middle;stroke-width:1;font-family:Luxi Sans" id="text879" x="367.222" y="258.889" xml:space="preserve"><tspan id="tspan880" x="367.222" y="258.889">C:1</tspan></text><rect style="font-size:12px;fill:none;fill-rule:evenodd;stroke:#000;stroke-width:.96922898" id="rect882" width="35" height="61.25" x="263.766" y="206.024"/><text style="font-size:18px;font-weight:400;text-anchor:middle;fill:#d90000;stroke-width:1;font-family:Luxi Sans" id="text883" x="278.766" y="242.274" xml:space="preserve"><tspan id="tspan884" x="278.766" y="242.274">B:3</tspan></text><text style="font-size:18px;font-weight:400;text-anchor:middle;stroke-width:1;font-family:Luxi Sans" id="text886" x="278.141" y="260.399" xml:space="preserve"><tspan id="tspan887" x="278.141" y="260.399">C:1</tspan></text><rect style="font-size:12px;fill:none;fill-rule:evenodd;stroke:#000;stroke-width:.96922898" id="rect889" width="35" height="61.25" x="360.396" y="318.508"/><text style="font-size:18px;font-weight:400;text-anchor:middle;fill:#d90000;stroke-width:1;font-family:Luxi Sans" id="text890" x="375.396" y="354.758" xml:space="preserve"><tspan id="tspan891" x="375.396" y="354.758">B:3</tspan></text><text style="font-size:18px;font-weight:400;text-anchor:middle;fill:#d90000;stroke-width:1;font-family:Luxi Sans" id="text893" x="374.771" y="372.882" xml:space="preserve"><tspan id="tspan894" x="374.771" y="372.882">C:2</tspan></text><rect style="font-size:12px;fill:none;fill-rule:evenodd;stroke:#000;stroke-width:.96922898" id="rect896" width="35" height="61.25" x="407.956" y="318.508"/><text style="font-size:18px;font-weight:400;text-anchor:middle;stroke-width:1;font-family:Luxi Sans" id="text897" x="422.956" y="354.757" xml:space="preserve"><tspan id="tspan898" x="422.956" y="354.757">B:3</tspan></text><text style="font-size:18px;font-weight:400;text-anchor:middle;fill:#d90000;stroke-width:1;font-family:Luxi Sans" id="text900" x="422.331" y="372.882" xml:space="preserve"><tspan id="tspan901" x="422.331" y="372.882">C:3</tspan></text><text style="font-size:18px;font-weight:400;text-anchor:middle;stroke-width:1;font-family:Luxi Sans" id="text903" x="422.956" y="220.634" xml:space="preserve"><tspan id="tspan904" x="422.956" y="220.634">A:2</tspan></text><rect style="font-size:12px;fill:none;fill-rule:evenodd;stroke:#000;stroke-width:.96922898" id="rect906" width="35" height="61.25" x="407.956" y="203.759"/><text style="font-size:18px;font-weight:400;text-anchor:middle;fill:#d90000;stroke-width:1;font-family:Luxi Sans" id="text907" x="422.956" y="240.009" xml:space="preserve"><tspan id="tspan908" x="422.956" y="240.009">B:5</tspan></text><text style="font-size:18px;font-weight:400;text-anchor:middle;stroke-width:1;font-family:Luxi Sans" id="text910" x="422.331" y="258.134" xml:space="preserve"><tspan id="tspan911" x="422.331" y="258.134">C:1</tspan></text><text style="font-size:18px;font-weight:400;text-anchor:middle;fill:#d90000;stroke-width:1;font-family:Luxi Sans" id="text913" x="541.479" y="107.396" xml:space="preserve"><tspan id="tspan914" x="541.479" y="107.396">A:3</tspan></text><rect style="font-size:12px;fill:none;fill-rule:evenodd;stroke:#000;stroke-width:.96922898" id="rect916" width="35" height="61.25" x="526.479" y="90.521"/><text style="font-size:18px;font-weight:400;text-anchor:middle;fill:#d90000;stroke-width:1;font-family:Luxi Sans" id="text917" x="541.479" y="126.771" xml:space="preserve"><tspan id="tspan918" x="541.479" y="126.771">B:3</tspan></text><text style="font-size:18px;font-weight:400;text-anchor:middle;fill:#d90000;stroke-width:1;font-family:Luxi Sans" id="text920" x="540.854" y="144.896" xml:space="preserve"><tspan id="tspan921" x="540.854" y="144.896">C:3</tspan></text><text style="font-size:18px;font-weight:400;text-anchor:middle;fill:#d90000;stroke-width:1;font-family:Luxi Sans" id="text923" x="660.757" y="106.641" xml:space="preserve"><tspan id="tspan924" x="660.757" y="106.641">A:4</tspan></text><rect style="font-size:12px;fill:none;fill-rule:evenodd;stroke:#000;stroke-width:.96922898" id="rect926" width="35" height="61.25" x="645.757" y="89.766"/><text style="font-size:18px;font-weight:400;text-anchor:middle;fill:#d90000;stroke-width:1;font-family:Luxi Sans" id="text927" x="660.757" y="126.016" xml:space="preserve"><tspan id="tspan928" x="660.757" y="126.016">B:5</tspan></text><text style="font-size:18px;font-weight:400;text-anchor:middle;fill:#d90000;stroke-width:1;font-family:Luxi Sans" id="text930" x="660.132" y="144.141" xml:space="preserve"><tspan id="tspan931" x="660.132" y="144.141">C:5</tspan></text><text style="font-size:18px;font-weight:400;text-anchor:middle;fill:#d90000;stroke-width:1;font-family:Luxi Sans" id="text933" x="512.037" y="336.138" xml:space="preserve"><tspan id="tspan934" x="512.037" y="336.138">A:2</tspan></text><rect style="font-size:12px;fill:none;fill-rule:evenodd;stroke:#000;stroke-width:.96922898" id="rect936" width="35" height="61.25" x="497.037" y="319.263"/><text style="font-size:18px;font-weight:400;text-anchor:middle;fill:#d90000;stroke-width:1;font-family:Luxi Sans" id="text937" x="512.037" y="355.512" xml:space="preserve"><tspan id="tspan938" x="512.037" y="355.512">B:5</tspan></text><text style="font-size:18px;font-weight:400;text-anchor:middle;fill:#d90000;stroke-width:1;font-family:Luxi Sans" id="text940" x="511.412" y="373.637" xml:space="preserve"><tspan id="tspan941" x="511.412" y="373.637">C:4</tspan></text><text style="font-size:18px;font-weight:400;text-anchor:middle;stroke-width:1;font-family:Luxi Sans" id="text943" x="554.313" y="336.137" xml:space="preserve"><tspan id="tspan944" x="554.313" y="336.137">A:2</tspan></text><rect style="font-size:12px;fill:none;fill-rule:evenodd;stroke:#000;stroke-width:.96922898" id="rect946" width="35" height="61.25" x="539.313" y="319.262"/><text style="font-size:18px;font-weight:400;text-anchor:middle;stroke-width:1;font-family:Luxi Sans" id="text947" x="554.313" y="355.512" xml:space="preserve"><tspan id="tspan948" x="554.313" y="355.512">B:5</tspan></text><text style="font-size:18px;font-weight:400;text-anchor:middle;fill:#d90000;stroke-width:1;font-family:Luxi Sans" id="text950" x="553.688" y="373.637" xml:space="preserve"><tspan id="tspan951" x="553.688" y="373.637">C:5</tspan></text></svg>