<svg xmlns="http://www.w3.org/2000/svg" xmlns:xlink="http://www.w3.org/1999/xlink" id="svg101" width="210mm" height="135mm"><path id="path134" d="M 334.577759 117.917908 A 70.437424 62.398376 0 1 0 193.702896,117.917908 A 70.4374 62.3984 0 1 0 334.578 117.918 L 264.140320 117.917908 z" transform="matrix(1.33097,0,0,1.50244,-53.799,-53.3473)" style="font-size:12;fill:#e6e6e6;fill-rule:evenodd;stroke:#000;stroke-width:1.32592"/><text id="text109" x="171.756" y="85.325" transform="translate(64.67,-5.6235)" style="font-size:24;font-weight:400;stroke-width:1pt;font-family:Nimbus Roman No9 L"><tspan id="tspan112" x="171.756" y="85.325">BuildMaster</tspan></text><path id="path155" d="M 115.828 341.652 L 177.995 205.386" transform="translate(64.67,-5.6235)" style="font-size:12;fill:none;fill-rule:evenodd;stroke:#000;stroke-width:2.5"/><path id="path124" d="M 245.24 327.175 L 237.717 223.362" transform="translate(64.67,-5.6235)" style="font-size:12;fill:none;fill-rule:evenodd;stroke:#000;stroke-width:2.5"/><g style="font-size:12" id="g134" transform="translate(64.67,-5.6235)"><path id="path105" d="M 179.381500 607.448853 A 73.168770 76.709229 0 1 0 33.043961,607.448853 A 73.1688 76.7092 0 1 0 179.382 607.449 L 106.212730 607.448853 z" transform="matrix(0.85419,0,0,0.814765,2.45788,-95.137)" style="font-size:12;fill:#e6e6e6;fill-rule:evenodd;stroke:#000;stroke-width:1.49836"/><text id="text114" x="65.64" y="365.564" style="font-size:24;font-weight:400;stroke-width:1pt;font-family:Nimbus Roman No9 L;font-style:normal;text-anchor:start;writing-mode:lr"><tspan id="tspan130" x="65.64" y="365.564">Build</tspan> <tspan id="tspan132" x="65.64" y="389.564"> Slave</tspan></text></g><g style="font-size:12" id="g141" transform="translate(395.668,-49.2551)"><path id="path142" d="M 179.381500 607.448853 A 73.168770 76.709229 0 1 0 33.043961,607.448853 A 73.1688 76.7092 0 1 0 179.382 607.449 L 106.212730 607.448853 z" transform="matrix(0.85419,0,0,0.814765,2.45788,-95.137)" style="font-size:12;fill:#e6e6e6;fill-rule:evenodd;stroke:#000;stroke-width:1.49836"/><text id="text143" x="65.64" y="365.564" style="font-size:24;font-weight:400;stroke-width:1pt;font-family:Nimbus Roman No9 L;font-style:normal;text-anchor:start;writing-mode:lr"><tspan id="tspan144" x="65.64" y="365.564">Build</tspan> <tspan id="tspan146" x="65.64" y="389.564"> Slave</tspan></text></g><g style="font-size:12" id="g148" transform="translate(237.692,-19.1644)"><path id="path149" d="M 179.381500 607.448853 A 73.168770 76.709229 0 1 0 33.043961,607.448853 A 73.1688 76.7092 0 1 0 179.382 607.449 L 106.212730 607.448853 z" transform="matrix(0.85419,0,0,0.814765,2.45788,-95.137)" style="font-size:12;fill:#e6e6e6;fill-rule:evenodd;stroke:#000;stroke-width:1.49836"/><text id="text150" x="65.64" y="365.564" style="font-size:24;font-weight:400;stroke-width:1pt;font-family:Nimbus Roman No9 L;font-style:normal;text-anchor:start;writing-mode:lr"><tspan id="tspan151" x="65.64" y="365.564">Build</tspan> <tspan id="tspan153" x="65.64" y="389.564"> Slave</tspan></text></g><path id="path183" d="M 313.381 177.167 L 385.474 306.636" transform="translate(64.67,-5.6235)" style="font-size:12;fill:none;fill-rule:evenodd;stroke:#000;stroke-width:1.875"/><path id="path185" d="M 378.982 295.337 L 380.74 310.958" transform="translate(69.4055,-9.94649)" style="font-size:12;fill:none;fill-rule:evenodd;stroke:#000;stroke-width:1.875"/><path id="path187" d="M 307.666 185.486 L 380.17 311.578" transform="translate(64.67,-5.62348)" style="font-size:12;fill:none;fill-rule:evenodd;stroke:#000;stroke-width:1.875"/><path id="path188" d="M 315.974 196.344 L 312.644 177.554" transform="translate(59.6922,2.30869)" style="font-size:12;fill:none;fill-rule:evenodd;stroke:#000;stroke-width:1.875"/><text id="text189" x="337.755" y="-247.182" transform="matrix(0.495343,0.868698,-0.868698,0.495343,0,0)" style="font-size:18;font-weight:400;stroke-width:1pt;font-family:Nimbus Roman No9 L"><tspan id="tspan197" x="337.755" y="-247.182">Commands</tspan></text><rect id="rect157" width="90.42" height="56.63" x="10.683" y="133.78" style="font-size:12;fill:#e6e6e6;fill-rule:evenodd;stroke:#000;stroke-width:1.25;stroke-dasharray:none"/><text id="text161" x="34.139" y="159.653" style="font-size:24;font-weight:400;stroke-width:1pt;font-family:Nimbus Roman No9 L"><tspan id="tspan162">CVS</tspan></text><path id="path170" d="M 483.315 144.074 L 379.553 172.269" transform="translate(-278.786,-9.57294)" style="font-size:12;fill:none;fill-rule:evenodd;stroke:#000;stroke-width:1pt"/><path id="path171" d="M 325.132 145.896 L 338.152 148.492" transform="translate(-133.623,-13.9906)" style="font-size:12;fill:none;fill-rule:evenodd;stroke:#000;stroke-width:1pt"/><path id="path172" d="M 329.861 140.221 L 340.021 130.843" transform="translate(-135.492,3.65842)" style="font-size:12;fill:none;fill-rule:evenodd;stroke:#000;stroke-width:1pt"/><text id="text175" x="61.83" y="178.877" transform="matrix(0.962658,-0.270725,0.270725,0.962658,0,0)" style="font-size:18;font-weight:400;stroke-width:1pt;font-family:Nimbus Roman No9 L"><tspan id="tspan178" x="61.83" y="178.877">Changes</tspan></text><g id="g334" transform="translate(-36.6653,-7.12939)"><rect id="rect318" width="97.774" height="58.053" x="478.685" y="23.698" style="font-size:12;fill:#e6e6e6;fill-rule:evenodd;stroke:#000;stroke-width:1.25;stroke-dasharray:none"/><text id="text321" x="494.981" y="48.142" style="fill:#000;stroke:none;font-family:Nimbus Roman No9 L;font-style:normal;font-weight:400;font-size:18;text-anchor:start;writing-mode:lr;fill-opacity:1;stroke-opacity:1;stroke-width:1pt;stroke-linejoin:miter;stroke-linecap:butt"><tspan id="tspan322">Browser</tspan></text></g><g id="g339" transform="translate(109.995,-9.16652)"><rect id="rect319" width="124.254" height="62.127" x="487.851" y="136.75" style="font-size:12;fill:#e6e6e6;fill-rule:evenodd;stroke-width:1pt;stroke:#000;stroke-opacity:1;fill-opacity:1"/><text id="text324" x="505.166" y="157.119" style="fill:#000;stroke:none;font-family:Nimbus Roman No9 L;font-style:normal;font-weight:400;font-size:18;text-anchor:start;writing-mode:lr;fill-opacity:1;stroke-opacity:1;stroke-width:1pt;stroke-linejoin:miter;stroke-linecap:butt"><tspan id="tspan325">Status Client</tspan></text></g><g id="g344" transform="translate(101.848,-11.2033)"><rect id="rect320" width="101.848" height="57.035" x="521.461" y="213.135" style="font-size:12;fill:#e6e6e6;fill-rule:evenodd;stroke:#000;stroke-width:1.25;stroke-dasharray:none"/><text id="text327" x="557.108" y="234.524" style="fill:#000;stroke:none;font-family:Nimbus Roman No9 L;font-style:normal;font-weight:400;font-size:18;text-anchor:start;writing-mode:lr;fill-opacity:1;stroke-opacity:1;stroke-width:1pt;stroke-linejoin:miter;stroke-linecap:butt"><tspan id="tspan328">IRC</tspan></text></g><g id="g349" transform="translate(-85.5523,-27.499)"><rect id="rect333" width="83.515" height="46.85" x="633.494" y="98.047" style="font-size:12;fill:#e6e6e6;fill-rule:evenodd;stroke:#000;stroke-width:1.25;stroke-dasharray:none"/><text id="text330" x="652.846" y="116.38" style="fill:#000;stroke:none;font-family:Nimbus Roman No9 L;font-style:normal;font-weight:400;font-size:18;text-anchor:start;writing-mode:lr;fill-opacity:1;stroke-opacity:1;stroke-width:1pt;stroke-linejoin:miter;stroke-linecap:butt"><tspan id="tspan331">email</tspan></text></g><path id="path355" d="M 377.856 75.6408 L 441.963 55.955" style="fill:none;fill-rule:evenodd;stroke:#000;stroke-opacity:1;stroke-width:1.875;stroke-linejoin:miter;stroke-linecap:butt;stroke-dasharray:none;fill-opacity:1"/><path id="path356" d="M 430.496 65.6275 L 441.001 56.2897" transform="translate(0.962296,0.0418015)" style="fill:none;fill-rule:evenodd;stroke:#000;stroke-opacity:1;stroke-width:1.875;stroke-linejoin:miter;stroke-linecap:butt;stroke-dasharray:none;fill-opacity:1"/><path id="path357" d="M 427.445 54.6311 L 441.001 56.2897" transform="translate(0.920448,-0.627563)" style="fill:none;fill-rule:evenodd;stroke:#000;stroke-opacity:1;stroke-width:1.875;stroke-linejoin:miter;stroke-linecap:butt;stroke-dasharray:none;fill-opacity:1"/><path id="path358" d="M 382.948 85.8256 L 546.923 94.9919" style="fill:none;fill-rule:evenodd;stroke:#000;stroke-opacity:1;stroke-width:1.875;stroke-linejoin:miter;stroke-linecap:butt;stroke-dasharray:none;fill-opacity:1"/><path id="path359" d="M 533.733 102.199 L 546.923 94.9919" style="fill:none;fill-rule:evenodd;stroke:#000;stroke-opacity:1;stroke-width:1.875;stroke-linejoin:miter;stroke-linecap:butt;stroke-dasharray:none;fill-opacity:1"/><path id="path360" d="M 532.867 86.0032 L 546.923 94.9919" style="fill:none;fill-rule:evenodd;stroke:#000;stroke-opacity:1;stroke-width:1.875;stroke-linejoin:miter;stroke-linecap:butt;stroke-dasharray:none;fill-opacity:1"/><path id="path361" d="M 391.096 107.214 L 596.829 140.823" style="fill:none;fill-rule:evenodd;stroke:#000;stroke-opacity:1;stroke-width:1.875;stroke-linejoin:miter;stroke-linecap:butt;stroke-dasharray:none;fill-opacity:1"/><path id="path362" d="M 580.686 147.343 L 596.829 140.823" style="fill:none;fill-rule:evenodd;stroke:#000;stroke-opacity:1;stroke-width:1.875;stroke-linejoin:miter;stroke-linecap:butt;stroke-dasharray:none;fill-opacity:1"/><path id="path364" d="M 582.162 130.664 L 596.829 140.823" style="fill:none;fill-rule:evenodd;stroke:#000;stroke-opacity:1;stroke-width:1.875;stroke-linejoin:miter;stroke-linecap:butt;stroke-dasharray:none;fill-opacity:1"/><path id="path365" d="M 391.096 124.528 L 622.291 210.08" style="fill:none;fill-rule:evenodd;stroke:#000;stroke-opacity:1;stroke-width:1.875;stroke-linejoin:miter;stroke-linecap:butt;stroke-dasharray:none;fill-opacity:1"/><path id="path366" d="M 610.094 198.468 L 622.291 210.08" style="fill:none;fill-rule:evenodd;stroke:#000;stroke-opacity:1;stroke-width:1.875;stroke-linejoin:miter;stroke-linecap:butt;stroke-dasharray:none;fill-opacity:1"/><path id="path367" d="M 605.868 211.329 L 622.291 210.08" style="fill:none;fill-rule:evenodd;stroke:#000;stroke-opacity:1;stroke-width:1.875;stroke-linejoin:miter;stroke-linecap:butt;stroke-dasharray:none;fill-opacity:1"/><text id="text368" x="444.866" y="38.271" transform="matrix(0.976454,0.215725,-0.215725,0.976454,0,0)" style="fill:#000;stroke:none;font-family:Nimbus Roman No9 L;font-style:normal;font-weight:400;font-size:18;text-anchor:start;writing-mode:lr;fill-opacity:1;stroke-opacity:1;stroke-width:1pt;stroke-linejoin:miter;stroke-linecap:butt"><tspan id="tspan369">Build Status</tspan></text><text id="text196" x="-479.649" y="229.559" transform="matrix(-0.498825,-0.866703,0.866703,-0.498825,0,0)" style="font-size:18;font-weight:400;stroke-width:1pt;font-family:Nimbus Roman No9 L;font-style:normal;text-anchor:start;writing-mode:lr"><tspan id="tspan198" x="-479.649" y="229.559">Results</tspan></text></svg>