<svg xmlns="http://www.w3.org/2000/svg" xmlns:xlink="http://www.w3.org/1999/xlink" id="svg374" width="210mm" height="125mm"><path id="path377" d="M 377.296570 264.107605 A 99.245399 93.503922 0 1 0 178.805786,264.107605 A 99.2454 93.5039 0 1 0 377.297 264.108 L 278.051178 264.107605 z" transform="matrix(1.46281,0,0,1.55263,-174.617,-197.627)" style="fill-rule:evenodd;stroke:#000;fill:#e6e6e6;fill-opacity:1;stroke-opacity:1;stroke-width:1.65887;stroke-linejoin:miter;stroke-linecap:butt;stroke-dasharray:none"/><text id="text378" x="201.772" y="96.784" style="fill:#000;stroke:none;font-family:Nimbus Roman No9 L;font-style:normal;font-weight:400;font-size:24;text-anchor:start;writing-mode:lr;fill-opacity:1;stroke-opacity:1;stroke-width:1pt;stroke-linejoin:miter;stroke-linecap:butt"><tspan id="tspan383" x="201.772" y="96.784">Build</tspan> <tspan id="tspan385" x="201.772" y="120.784"> Slave</tspan></text><path id="path388" d="M 124.672 113.189 C 124.672 113.189 218.176 187.008 333.005 109.908" style="fill:none;fill-rule:evenodd;stroke:#000;stroke-opacity:1;stroke-width:1.875;stroke-linejoin:miter;stroke-linecap:butt;stroke-dasharray:none;fill-opacity:1"/><path id="path389" d="M 145.997 329.724 L 185.367 139.436" style="fill:none;fill-rule:evenodd;stroke:#000;stroke-opacity:1;stroke-width:1.875;stroke-linejoin:miter;stroke-linecap:butt;stroke-dasharray:none;fill-opacity:1"/><path id="path390" d="M 260.827 141.076 L 314.738 332.894" style="fill:none;fill-rule:evenodd;stroke:#000;stroke-opacity:1;stroke-width:1.875;stroke-linejoin:miter;stroke-linecap:butt;stroke-dasharray:none;fill-opacity:1"/><text id="text391" x="108.268" y="185.367" style="fill:#000;stroke:none;font-family:Nimbus Mono L;font-style:normal;font-weight:400;font-size:18;text-anchor:start;writing-mode:lr;fill-opacity:1;stroke-opacity:1;stroke-width:1pt;stroke-linejoin:miter;stroke-linecap:butt"><tspan id="tspan394" x="108.268" y="185.367">quick</tspan></text><text id="text396" x="183.727" y="226.378" style="fill:#000;stroke:none;font-family:Nimbus Mono L;font-style:normal;font-weight:400;font-size:18;text-anchor:start;writing-mode:lr;fill-opacity:1;stroke-opacity:1;stroke-width:1pt;stroke-linejoin:miter;stroke-linecap:butt"><tspan id="tspan399" x="183.727" y="226.378">full-2.1</tspan></text><text id="text401" x="283.793" y="205.052" style="fill:#000;stroke:none;font-family:Nimbus Mono L;font-style:normal;font-weight:400;font-size:18;text-anchor:start;writing-mode:lr;fill-opacity:1;stroke-opacity:1;stroke-width:1pt;stroke-linejoin:miter;stroke-linecap:butt"><tspan id="tspan404" x="283.793" y="205.052">full-2.2</tspan></text><a style="font-size:12;fill:#e6e6ff;stroke:#000;stroke-width:1.25" id="a585" transform="translate(18.0446,57.3687)"><path id="path586" d="M 572.506592 120.570831 A 45.111572 22.145672 0 1 0 482.283447,120.570831 A 45.1116 22.1457 0 1 0 572.507 120.571 L 527.395020 120.570831 z" style="fill-rule:evenodd;stroke:#000;fill:#e6e6ff;fill-opacity:1;stroke-opacity:1;stroke-width:1.25;stroke-linejoin:miter;stroke-linecap:butt;stroke-dasharray:none"/></a><a style="font-size:12;fill:#e6e6ff;stroke:#000;stroke-width:1.25" id="a583" transform="matrix(1.00002,0,0,1,18.0348,47.3687)"><path id="path584" d="M 572.506592 120.570831 A 45.111572 22.145672 0 1 0 482.283447,120.570831 A 45.1116 22.1457 0 1 0 572.507 120.571 L 527.395020 120.570831 z" style="fill-rule:evenodd;stroke:#000;fill:#e6e6ff;fill-opacity:1;stroke-opacity:1;stroke-width:1.25;stroke-linejoin:miter;stroke-linecap:butt;stroke-dasharray:none"/></a><a style="font-size:12;fill:#e6e6ff;stroke:#000;stroke-width:1.25" id="a579" transform="matrix(1.00002,0,0,1,18.0348,37.3687)"><path id="path578" d="M 572.506592 120.570831 A 45.111572 22.145672 0 1 0 482.283447,120.570831 A 45.1116 22.1457 0 1 0 572.507 120.571 L 527.395020 120.570831 z" style="fill-rule:evenodd;stroke:#000;fill:#e6e6ff;fill-opacity:1;stroke-opacity:1;stroke-width:1.25;stroke-linejoin:miter;stroke-linecap:butt;stroke-dasharray:none"/></a><path id="path595" d="M 305.118 85.3018 L 501.872 151.39" style="fill:none;fill-rule:evenodd;stroke:#000;stroke-opacity:1;stroke-width:1.25;stroke-linejoin:miter;stroke-linecap:butt;stroke-dasharray:none;fill-opacity:1"/><path id="path599" d="M 479.841 129.844 L 501.872 151.39" transform="translate(0.000457764,-0.000205994)" style="fill:none;fill-rule:evenodd;stroke:#000;stroke-opacity:1;stroke-width:1.25;stroke-linejoin:miter;stroke-linecap:butt;stroke-dasharray:none;fill-opacity:1"/><path id="path600" d="M 469.137 157.769 L 501.872 151.39" style="fill:none;fill-rule:evenodd;stroke:#000;stroke-opacity:1;stroke-width:1.25;stroke-linejoin:miter;stroke-linecap:butt;stroke-dasharray:none;fill-opacity:1"/><a style="font-size:12;fill:#e6e6ff;stroke:#000;stroke-width:1.25" id="a607" transform="translate(109.908,154.154)"><path id="path608" d="M 572.506592 120.570831 A 45.111572 22.145672 0 1 0 482.283447,120.570831 A 45.1116 22.1457 0 1 0 572.507 120.571 L 527.395020 120.570831 z" style="fill-rule:evenodd;stroke:#000;fill:#e6e6ff;fill-opacity:1;stroke-opacity:1;stroke-width:1.25;stroke-linejoin:miter;stroke-linecap:butt;stroke-dasharray:none"/></a><a style="font-size:12;fill:#e6e6ff;stroke:#000;stroke-width:1.25" id="a609" transform="translate(-109.908,287.028)"><path id="path610" d="M 572.506592 120.570831 A 45.111572 22.145672 0 1 0 482.283447,120.570831 A 45.1116 22.1457 0 1 0 572.507 120.571 L 527.395020 120.570831 z" style="fill-rule:evenodd;stroke:#000;fill:#e6e6ff;fill-opacity:1;stroke-opacity:1;stroke-width:1.25;stroke-linejoin:miter;stroke-linecap:butt;stroke-dasharray:none"/></a><a style="font-size:12;fill:#e6e6ff;stroke:#000;stroke-width:1.25" id="a611" transform="translate(4.92108,216.49)"><path id="path612" d="M 572.506592 120.570831 A 45.111572 22.145672 0 1 0 482.283447,120.570831 A 45.1116 22.1457 0 1 0 572.507 120.571 L 527.395020 120.570831 z" style="fill-rule:evenodd;stroke:#000;fill:#e6e6ff;fill-opacity:1;stroke-opacity:1;stroke-width:1.25;stroke-linejoin:miter;stroke-linecap:butt;stroke-dasharray:none"/></a><path id="path614" d="M 129.593 206.692 L 376.931 397.192" style="fill:none;fill-rule:evenodd;stroke:red;stroke-opacity:1;stroke-width:1.25;stroke-linejoin:miter;stroke-linecap:butt;stroke-dasharray:none;fill-opacity:1"/><path id="path615" d="M 224.738 234.58 L 492.3 325.857" style="fill:none;fill-rule:evenodd;stroke:red;stroke-opacity:1;stroke-width:1.25;stroke-linejoin:miter;stroke-linecap:butt;stroke-dasharray:none;fill-opacity:1"/><path id="path616" d="M 331.365 211.614 L 592.697 269.934" style="fill:none;fill-rule:evenodd;stroke:red;stroke-opacity:1;stroke-width:1.25;stroke-linejoin:miter;stroke-linecap:butt;stroke-dasharray:none;fill-opacity:1"/><path id="path617" d="M 572.507 195.21 L 633.202 253.5" style="fill:none;fill-rule:evenodd;stroke:#000;stroke-opacity:1;stroke-width:1.25;stroke-linejoin:miter;stroke-linecap:butt;stroke-dasharray:none;fill-opacity:1"/><path id="path618" d="M 541.339 201.772 L 531.496 315.503" style="fill:none;fill-rule:evenodd;stroke:#000;stroke-opacity:1;stroke-width:1.25;stroke-linejoin:miter;stroke-linecap:butt;stroke-dasharray:none;fill-opacity:1"/><path id="path619" d="M 511.811 195.21 L 416.013 385.276" style="fill:none;fill-rule:evenodd;stroke:#000;stroke-opacity:1;stroke-width:1.25;stroke-linejoin:miter;stroke-linecap:butt;stroke-dasharray:none;fill-opacity:1"/><text id="text620" x="504.529" y="101.706" style="fill:#000;stroke:none;font-family:Nimbus Sans L;font-style:normal;font-weight:400;font-size:24;text-anchor:start;writing-mode:lr;fill-opacity:1;stroke-opacity:1;stroke-width:1pt;stroke-linejoin:miter;stroke-linecap:butt"><tspan id="tspan625" x="504.529" y="101.706">base</tspan> <tspan id="tspan627" x="504.529" y="125.706"> directory</tspan></text><text id="text629" x="497.047" y="395.341" style="fill:#000;stroke:none;font-family:Nimbus Sans L;font-style:normal;font-weight:400;font-size:24;text-anchor:start;writing-mode:lr;fill-opacity:1;stroke-opacity:1;stroke-width:1pt;stroke-linejoin:miter;stroke-linecap:butt"><tspan id="tspan630">build</tspan> <tspan id="tspan632" x="497.047" y="419.341"> subdirectories</tspan></text><path id="path637" d="M 367.683 381.34 L 376.931 397.192" style="fill:none;fill-rule:evenodd;stroke:red;stroke-opacity:1;stroke-width:1.25;stroke-linejoin:miter;stroke-linecap:butt;stroke-dasharray:none;fill-opacity:1"/><path id="path640" d="M 358.877 393.669 L 376.931 397.192" transform="translate(0.000267029,0.000289917)" style="fill:none;fill-rule:evenodd;stroke:red;stroke-opacity:1;stroke-width:1.25;stroke-linejoin:miter;stroke-linecap:butt;stroke-dasharray:none;fill-opacity:1"/><path id="path642" d="M 480.851 315.73 L 492.3 325.857" style="fill:none;fill-rule:evenodd;stroke:red;stroke-opacity:1;stroke-width:1.25;stroke-linejoin:miter;stroke-linecap:butt;stroke-dasharray:none;fill-opacity:1"/><path id="path643" d="M 477.768 326.738 L 492.3 325.857" style="fill:none;fill-rule:evenodd;stroke:red;stroke-opacity:1;stroke-width:1.25;stroke-linejoin:miter;stroke-linecap:butt;stroke-dasharray:none;fill-opacity:1"/><path id="path646" d="M 580.808 261.127 L 592.697 269.934" style="fill:none;fill-rule:evenodd;stroke:red;stroke-opacity:1;stroke-width:1.25;stroke-linejoin:miter;stroke-linecap:butt;stroke-dasharray:none;fill-opacity:1"/><path id="path647" d="M 577.285 273.897 L 592.697 269.934" style="fill:none;fill-rule:evenodd;stroke:red;stroke-opacity:1;stroke-width:1.25;stroke-linejoin:miter;stroke-linecap:butt;stroke-dasharray:none;fill-opacity:1"/><path id="path649" d="M 225.781 66.7357 L 253.45 21.533" style="fill:none;fill-rule:evenodd;stroke:#000;stroke-opacity:1;stroke-width:2.5;stroke-linejoin:miter;stroke-linecap:butt;stroke-dasharray:none;fill-opacity:1"/><text id="text650" x="223.199" y="18.348" style="fill:#000;stroke:none;font-family:Nimbus Sans L;font-style:normal;font-weight:400;font-size:18;text-anchor:start;writing-mode:lr;fill-opacity:1;stroke-opacity:1;stroke-width:1pt;stroke-linejoin:miter;stroke-linecap:butt"><tspan id="tspan653" x="223.199" y="18.348">to master</tspan></text><text id="text163" x="181.871" y="178.295" style="fill:#000;stroke:none;font-family:Nimbus Roman No9 L;font-style:normal;font-weight:400;font-size:14;fill-opacity:1;stroke-opacity:1;stroke-width:1pt;stroke-linejoin:miter;stroke-linecap:butt;text-anchor:start;writing-mode:lr"><tspan id="tspan174" x="181.871" y="178.295">RemoteBuilder</tspan></text><text id="text168" x="277.548" y="153.299" style="fill:#000;stroke:none;font-family:Nimbus Roman No9 L;font-style:normal;font-weight:400;font-size:12;fill-opacity:1;stroke-opacity:1;stroke-width:1pt;stroke-linejoin:miter;stroke-linecap:butt;text-anchor:start;writing-mode:lr"><tspan id="tspan169" x="277.548" y="153.299">RemoteBuilder</tspan></text><text id="text171" x="106.882" y="150.713" style="fill:#000;stroke:none;font-family:Nimbus Roman No9 L;font-style:normal;font-weight:400;font-size:12;fill-opacity:1;stroke-opacity:1;stroke-width:1pt;stroke-linejoin:miter;stroke-linecap:butt;text-anchor:start;writing-mode:lr"><tspan id="tspan172" x="106.882" y="150.713">RemoteBuilder</tspan></text></svg>