<svg xmlns="http://www.w3.org/2000/svg" xmlns:svg="http://www.w3.org/2000/svg" xmlns:xlink="http://www.w3.org/1999/xlink" id="svg2" width="2160" height="1080" version="1.1"><metadata id="metadata7"/><path style="fill:none;stroke:#000;stroke-width:.09003464;stroke-linecap:butt;stroke-linejoin:miter;stroke-miterlimit:4;stroke-opacity:1;stroke-dasharray:none" id="path3594" d="m 139.43797,123.71599 0,-67.441981 L 81,22.553017 22.563031,56.274009 l 0,67.441981 L 81,157.43698 139.43797,123.71599 z"/><path style="fill:none;stroke:#000;stroke-width:.09;stroke-miterlimit:4;stroke-opacity:1;stroke-dasharray:none;stroke-dashoffset:0" id="path2985" d="m 115.65951,89.369339 a 31.910877,31.910877 0 1 1 -63.821753,0 31.910877,31.910877 0 1 1 63.821753,0 z" transform="matrix(0.78834006,0,0,0.78834006,14.955974,19.703193)"/><path id="path3832" d="m 115.65951,89.369339 a 31.910877,31.910877 0 1 1 -63.821753,0 31.910877,31.910877 0 1 1 63.821753,0 z" transform="matrix(0.97077804,0,0,0.97077804,-0.32295611,3.3988327)" style="fill:none;stroke:none;stroke-width:.07982514;stroke-miterlimit:4;stroke-opacity:1;stroke-dasharray:none;stroke-dashoffset:0"/><text style="font-size:40px;font-style:normal;font-weight:400;line-height:125%;letter-spacing:0;word-spacing:0;fill:#000;fill-opacity:1;stroke:none;font-family:Bitstream Vera Sans" id="text3834" xml:space="preserve"><textPath id="textPath3838" dx="9.86 0 0 0 0 0" xlink:href="#path3832" style="font-size:28px;font-style:normal;font-variant:normal;font-weight:400;font-stretch:normal;letter-spacing:-1.42999995px;font-family:Charcoal CY;-inkscape-font-specification:Charcoal CY">Buildbot</textPath></text></svg>